<svg width="14" height="11" viewBox="0 0 14 11" fill="none" xmlns="http://www.w3.org/2000/svg">
<path d="M12.1385 4.18975L12.1381 4.19046L9.84018 8.14839C9.66803 8.4449 9.28811 8.54576 8.99154 8.3736C8.695 8.20146 8.59417 7.82153 8.76631 7.525L10.3091 4.86769L1.75626 7.15937C1.42506 7.24811 1.08464 7.05158 0.995898 6.72037C0.907153 6.38917 1.10369 6.04876 1.43489 5.96001L9.98773 3.66834L7.32302 2.13844C7.02567 1.9677 6.92303 1.58826 7.09377 1.29091C7.26452 0.993496 7.64402 0.890942 7.94132 1.06163L11.9103 3.34035L11.911 3.34078C12.2087 3.51226 12.31 3.89338 12.1385 4.18975Z" fill="#7A1F3D"/>
</svg>
