<svg width="15" height="15" viewBox="0 0 15 15" fill="none" xmlns="http://www.w3.org/2000/svg">
<path d="M13.75 1.5H12.5V1C12.5 0.734783 12.3946 0.48043 12.2071 0.292893C12.0196 0.105357 11.7652 0 11.5 0C11.2348 0 10.9804 0.105357 10.7929 0.292893C10.6054 0.48043 10.5 0.734783 10.5 1V1.5H8.5V1C8.5 0.734783 8.39464 0.48043 8.20711 0.292893C8.01957 0.105357 7.76522 0 7.5 0C7.23478 0 6.98043 0.105357 6.79289 0.292893C6.60536 0.48043 6.5 0.734783 6.5 1V1.5H4.5V1C4.5 0.734783 4.39464 0.48043 4.20711 0.292893C4.01957 0.105357 3.76522 0 3.5 0C3.23478 0 2.98043 0.105357 2.79289 0.292893C2.60536 0.48043 2.5 0.734783 2.5 1V1.5H1.25C0.918479 1.5 0.600537 1.6317 0.366116 1.86612C0.131696 2.10054 0 2.41848 0 2.75V12.75C0 13.0815 0.131696 13.3995 0.366116 13.6339C0.600537 13.8683 0.918479 14 1.25 14H8.25C8.3163 14 8.37989 13.9737 8.42678 13.9268C8.47366 13.8799 8.5 13.8163 8.5 13.75C8.5 13.6837 8.47366 13.6201 8.42678 13.5732C8.37989 13.5263 8.3163 13.5 8.25 13.5H1.25C1.05127 13.4994 0.860849 13.4202 0.720326 13.2797C0.579802 13.1391 0.500593 12.9487 0.5 12.75V5H14.5V9.25C14.5 9.3163 14.5263 9.37989 14.5732 9.42678C14.6201 9.47366 14.6837 9.5 14.75 9.5C14.8163 9.5 14.8799 9.47366 14.9268 9.42678C14.9737 9.37989 15 9.3163 15 9.25V2.75C15 2.41848 14.8683 2.10054 14.6339 1.86612C14.3995 1.6317 14.0815 1.5 13.75 1.5ZM11 1C11 0.867392 11.0527 0.740215 11.1464 0.646447C11.2402 0.552678 11.3674 0.5 11.5 0.5C11.6326 0.5 11.7598 0.552678 11.8536 0.646447C11.9473 0.740215 12 0.867392 12 1V2.5C12 2.63261 11.9473 2.75978 11.8536 2.85355C11.7598 2.94732 11.6326 3 11.5 3C11.3674 3 11.2402 2.94732 11.1464 2.85355C11.0527 2.75978 11 2.63261 11 2.5V1ZM7 1C7 0.867392 7.05268 0.740215 7.14645 0.646447C7.24021 0.552678 7.36739 0.5 7.5 0.5C7.63261 0.5 7.75978 0.552678 7.85355 0.646447C7.94732 0.740215 8 0.867392 8 1V2.5C8 2.63261 7.94732 2.75978 7.85355 2.85355C7.75978 2.94732 7.63261 3 7.5 3C7.36739 3 7.24021 2.94732 7.14645 2.85355C7.05268 2.75978 7 2.63261 7 2.5V1ZM3 1C3 0.867392 3.05268 0.740215 3.14645 0.646447C3.24021 0.552678 3.36739 0.5 3.5 0.5C3.63261 0.5 3.75978 0.552678 3.85355 0.646447C3.94732 0.740215 4 0.867392 4 1V2.5C4 2.63261 3.94732 2.75978 3.85355 2.85355C3.75978 2.94732 3.63261 3 3.5 3C3.36739 3 3.24021 2.94732 3.14645 2.85355C3.05268 2.75978 3 2.63261 3 2.5V1ZM14.5 4.5H0.5V2.75C0.500593 2.55127 0.579802 2.36085 0.720326 2.22033C0.860849 2.0798 1.05127 2.00059 1.25 2H2.5V2.5C2.5 2.76522 2.60536 3.01957 2.79289 3.20711C2.98043 3.39464 3.23478 3.5 3.5 3.5C3.76522 3.5 4.01957 3.39464 4.20711 3.20711C4.39464 3.01957 4.5 2.76522 4.5 2.5V2H6.5V2.5C6.5 2.76522 6.60536 3.01957 6.79289 3.20711C6.98043 3.39464 7.23478 3.5 7.5 3.5C7.76522 3.5 8.01957 3.39464 8.20711 3.20711C8.39464 3.01957 8.5 2.76522 8.5 2.5V2H10.5V2.5C10.5 2.76522 10.6054 3.01957 10.7929 3.20711C10.9804 3.39464 11.2348 3.5 11.5 3.5C11.7652 3.5 12.0196 3.39464 12.2071 3.20711C12.3946 3.01957 12.5 2.76522 12.5 2.5V2H13.75C13.9487 2.00059 14.1391 2.0798 14.2797 2.22033C14.4202 2.36085 14.4994 2.55127 14.5 2.75V4.5Z" fill="#FFFBFC"/>
<path d="M7 6.75C7 6.61739 6.94732 6.49021 6.85355 6.39645C6.75978 6.30268 6.63261 6.25 6.5 6.25H5.5C5.36739 6.25 5.24021 6.30268 5.14645 6.39645C5.05268 6.49021 5 6.61739 5 6.75V7.5C5 7.63261 5.05268 7.75979 5.14645 7.85355C5.24021 7.94732 5.36739 8 5.5 8H6.5C6.63261 8 6.75978 7.94732 6.85355 7.85355C6.94732 7.75979 7 7.63261 7 7.5V6.75ZM5.5 7.5V6.75H6.5V7.5H5.5Z" fill="#FFFBFC"/>
<path d="M4 6.75C4 6.61739 3.94732 6.49021 3.85355 6.39645C3.75978 6.30268 3.63261 6.25 3.5 6.25H2.5C2.36739 6.25 2.24021 6.30268 2.14645 6.39645C2.05268 6.49021 2 6.61739 2 6.75V7.5C2 7.63261 2.05268 7.75979 2.14645 7.85355C2.24021 7.94732 2.36739 8 2.5 8H3.5C3.63261 8 3.75978 7.94732 3.85355 7.85355C3.94732 7.75979 4 7.63261 4 7.5V6.75ZM2.5 7.5V6.75H3.5V7.5H2.5Z" fill="#FFFBFC"/>
<path d="M12.5 8C12.6326 8 12.7598 7.94732 12.8536 7.85355C12.9473 7.75979 13 7.63261 13 7.5V6.75C13 6.61739 12.9473 6.49021 12.8536 6.39645C12.7598 6.30268 12.6326 6.25 12.5 6.25H11.5C11.3674 6.25 11.2402 6.30268 11.1464 6.39645C11.0527 6.49021 11 6.61739 11 6.75V7.5C11 7.63261 11.0527 7.75979 11.1464 7.85355C11.2402 7.94732 11.3674 8 11.5 8H12.5ZM11.5 6.75H12.5V7.5H11.5V6.75Z" fill="#FFFBFC"/>
<path d="M7 9C7 8.86739 6.94732 8.74021 6.85355 8.64645C6.75978 8.55268 6.63261 8.5 6.5 8.5H5.5C5.36739 8.5 5.24021 8.55268 5.14645 8.64645C5.05268 8.74021 5 8.86739 5 9V9.75C5 9.88261 5.05268 10.0098 5.14645 10.1036C5.24021 10.1973 5.36739 10.25 5.5 10.25H6.5C6.63261 10.25 6.75978 10.1973 6.85355 10.1036C6.94732 10.0098 7 9.88261 7 9.75V9ZM5.5 9.75V9H6.5V9.75H5.5Z" fill="#FFFBFC"/>
<path d="M4 9C4 8.86739 3.94732 8.74021 3.85355 8.64645C3.75978 8.55268 3.63261 8.5 3.5 8.5H2.5C2.36739 8.5 2.24021 8.55268 2.14645 8.64645C2.05268 8.74021 2 8.86739 2 9V9.75C2 9.88261 2.05268 10.0098 2.14645 10.1036C2.24021 10.1973 2.36739 10.25 2.5 10.25H3.5C3.63261 10.25 3.75978 10.1973 3.85355 10.1036C3.94732 10.0098 4 9.88261 4 9.75V9ZM2.5 9.75V9H3.5V9.75H2.5Z" fill="#FFFBFC"/>
<path d="M6.5 10.75H5.5C5.36739 10.75 5.24021 10.8027 5.14645 10.8964C5.05268 10.9902 5 11.1174 5 11.25V12C5 12.1326 5.05268 12.2598 5.14645 12.3536C5.24021 12.4473 5.36739 12.5 5.5 12.5H6.5C6.63261 12.5 6.75978 12.4473 6.85355 12.3536C6.94732 12.2598 7 12.1326 7 12V11.25C7 11.1174 6.94732 10.9902 6.85355 10.8964C6.75978 10.8027 6.63261 10.75 6.5 10.75ZM5.5 12V11.25H6.5V12H5.5Z" fill="#FFFBFC"/>
<path d="M8.5 8H9.5C9.63261 8 9.75979 7.94732 9.85355 7.85355C9.94732 7.75979 10 7.63261 10 7.5V6.75C10 6.61739 9.94732 6.49021 9.85355 6.39645C9.75979 6.30268 9.63261 6.25 9.5 6.25H8.5C8.36739 6.25 8.24021 6.30268 8.14645 6.39645C8.05268 6.49021 8 6.61739 8 6.75V7.5C8 7.63261 8.05268 7.75979 8.14645 7.85355C8.24021 7.94732 8.36739 8 8.5 8ZM8.5 6.75H9.5V7.5H8.5V6.75Z" fill="#FFFBFC"/>
<path d="M8 9.75C8 9.88261 8.05268 10.0098 8.14645 10.1036C8.24021 10.1973 8.36739 10.25 8.5 10.25C8.5663 10.25 8.62989 10.2237 8.67678 10.1768C8.72366 10.1299 8.75 10.0663 8.75 10C8.75 9.9337 8.72366 9.87011 8.67678 9.82322C8.62989 9.77634 8.5663 9.75 8.5 9.75V9H9.5C9.5663 9 9.62989 8.97366 9.67678 8.92678C9.72366 8.87989 9.75 8.8163 9.75 8.75C9.75 8.6837 9.72366 8.62011 9.67678 8.57322C9.62989 8.52634 9.5663 8.5 9.5 8.5H8.5C8.36739 8.5 8.24021 8.55268 8.14645 8.64645C8.05268 8.74021 8 8.86739 8 9V9.75Z" fill="#FFFBFC"/>
<path d="M3.5 10.75H2.5C2.36739 10.75 2.24021 10.8027 2.14645 10.8964C2.05268 10.9902 2 11.1174 2 11.25V12C2 12.1326 2.05268 12.2598 2.14645 12.3536C2.24021 12.4473 2.36739 12.5 2.5 12.5H3.5C3.63261 12.5 3.75978 12.4473 3.85355 12.3536C3.94732 12.2598 4 12.1326 4 12V11.25C4 11.1174 3.94732 10.9902 3.85355 10.8964C3.75978 10.8027 3.63261 10.75 3.5 10.75ZM2.5 12V11.25H3.5V12H2.5Z" fill="#FFFBFC"/>
<path d="M11.75 8.5C11.1072 8.5 10.4789 8.69061 9.9444 9.04772C9.40994 9.40484 8.99338 9.91242 8.74739 10.5063C8.50141 11.1001 8.43705 11.7536 8.56245 12.384C8.68785 13.0145 8.99738 13.5936 9.4519 14.0481C9.90643 14.5026 10.4855 14.8121 11.116 14.9376C11.7464 15.063 12.3999 14.9986 12.9937 14.7526C13.5876 14.5066 14.0952 14.0901 14.4523 13.5556C14.8094 13.0211 15 12.3928 15 11.75C14.999 10.8884 14.6563 10.0623 14.047 9.453C13.4377 8.84372 12.6116 8.50099 11.75 8.5ZM11.75 14.5C11.2061 14.5 10.6744 14.3387 10.2222 14.0365C9.76995 13.7344 9.41747 13.3049 9.20933 12.8024C9.00119 12.2999 8.94673 11.7469 9.05284 11.2135C9.15895 10.6801 9.42086 10.1901 9.80546 9.80546C10.1901 9.42086 10.6801 9.15895 11.2135 9.05284C11.747 8.94673 12.2999 9.00119 12.8024 9.20933C13.3049 9.41747 13.7344 9.76995 14.0365 10.2222C14.3387 10.6744 14.5 11.2061 14.5 11.75C14.4991 12.4791 14.2091 13.1781 13.6936 13.6936C13.1781 14.2091 12.4791 14.4991 11.75 14.5Z" fill="#FFFBFC"/>
<path d="M13.1943 10.702L11.2498 12.6465L10.3661 11.7625C10.3189 11.717 10.2558 11.6918 10.1902 11.6923C10.1247 11.6929 10.062 11.7192 10.0156 11.7656C9.96925 11.8119 9.94296 11.8746 9.94239 11.9402C9.94182 12.0057 9.96702 12.0689 10.0126 12.116L11.0731 13.1768C11.1199 13.2236 11.1835 13.25 11.2498 13.25C11.3161 13.25 11.3797 13.2236 11.4266 13.1768L13.5478 11.0555C13.5934 11.0084 13.6185 10.9452 13.618 10.8797C13.6174 10.8141 13.5911 10.7514 13.5448 10.7051C13.4984 10.6587 13.4357 10.6324 13.3702 10.6318C13.3046 10.6313 13.2415 10.6565 13.1943 10.702Z" fill="#FFFBFC"/>
</svg>
