<svg width="15" height="15" viewBox="0 0 15 15" fill="none" xmlns="http://www.w3.org/2000/svg">
<path d="M5.78138 5.00019H1.09374C0.490623 5.00019 0 4.50956 0 3.90633V1.09374C0 0.490623 0.490623 0 1.09374 0H5.78138C6.38462 0 6.87524 0.490623 6.87524 1.09374V3.90633C6.87524 4.50956 6.38462 5.00019 5.78138 5.00019ZM1.09374 0.937528C1.00757 0.937528 0.937528 1.00757 0.937528 1.09374V3.90633C0.937528 3.99262 1.00757 4.06266 1.09374 4.06266H5.78138C5.86767 4.06266 5.93771 3.99262 5.93771 3.90633V1.09374C5.93771 1.00757 5.86767 0.937528 5.78138 0.937528H1.09374Z" fill="#7A1F3D"/>
<path d="M5.78138 15.0006H1.09374C0.490623 15.0006 0 14.5099 0 13.9068V7.34412C0 6.74088 0.490623 6.25026 1.09374 6.25026H5.78138C6.38462 6.25026 6.87524 6.74088 6.87524 7.34412V13.9068C6.87524 14.5099 6.38462 15.0006 5.78138 15.0006ZM1.09374 7.18779C1.00757 7.18779 0.937528 7.25783 0.937528 7.34412V13.9068C0.937528 13.993 1.00757 14.063 1.09374 14.063H5.78138C5.86767 14.063 5.93771 13.993 5.93771 13.9068V7.34412C5.93771 7.25783 5.86767 7.18779 5.78138 7.18779H1.09374Z" fill="#7A1F3D"/>
<path d="M13.9063 15.0005H9.21861C8.61538 15.0005 8.12476 14.5099 8.12476 13.9067V11.0942C8.12476 10.4909 8.61538 10.0003 9.21861 10.0003H13.9063C14.5094 10.0003 15 10.4909 15 11.0942V13.9067C15 14.5099 14.5094 15.0005 13.9063 15.0005ZM9.21861 10.9378C9.13232 10.9378 9.06228 11.0079 9.06228 11.0942V13.9067C9.06228 13.9929 9.13232 14.063 9.21861 14.063H13.9063C13.9924 14.063 14.0625 13.9929 14.0625 13.9067V11.0942C14.0625 11.0079 13.9924 10.9378 13.9063 10.9378H9.21861Z" fill="#7A1F3D"/>
<path d="M13.9063 8.7503H9.21861C8.61538 8.7503 8.12476 8.25968 8.12476 7.65644V1.09374C8.12476 0.490623 8.61538 0 9.21861 0H13.9063C14.5094 0 15 0.490623 15 1.09374V7.65644C15 8.25968 14.5094 8.7503 13.9063 8.7503ZM9.21861 0.937528C9.13232 0.937528 9.06228 1.00757 9.06228 1.09374V7.65644C9.06228 7.74273 9.13232 7.81277 9.21861 7.81277H13.9063C13.9924 7.81277 14.0625 7.74273 14.0625 7.65644V1.09374C14.0625 1.00757 13.9924 0.937528 13.9063 0.937528H9.21861Z" fill="#7A1F3D"/>
</svg>
