<svg width="15" height="13" viewBox="0 0 15 13" fill="none" xmlns="http://www.w3.org/2000/svg">
<path d="M7.49964 3.50002C7.15352 3.50002 6.81518 3.39738 6.52739 3.20509C6.2396 3.0128 6.0153 2.73948 5.88285 2.41971C5.75039 2.09994 5.71574 1.74807 5.78326 1.4086C5.85079 1.06913 6.01746 0.75731 6.2622 0.512567C6.50694 0.267824 6.81877 0.101151 7.15823 0.0336267C7.4977 -0.0338978 7.84957 0.00075825 8.16934 0.133212C8.48912 0.265666 8.76243 0.48997 8.95472 0.777757C9.14702 1.06554 9.24965 1.40389 9.24965 1.75001C9.24912 2.21398 9.06458 2.65879 8.7365 2.98687C8.40843 3.31494 7.96361 3.49949 7.49964 3.50002ZM7.49964 0.500004C7.25242 0.500004 7.01074 0.573315 6.80518 0.710668C6.59962 0.84802 6.4394 1.04324 6.34479 1.27165C6.25018 1.50006 6.22542 1.7514 6.27366 1.99387C6.32189 2.23635 6.44094 2.45908 6.61576 2.6339C6.79057 2.80871 7.0133 2.92777 7.25578 2.976C7.49826 3.02423 7.74959 2.99948 7.978 2.90487C8.20641 2.81026 8.40163 2.65004 8.53899 2.44448C8.67634 2.23891 8.74965 1.99724 8.74965 1.75001C8.74925 1.41861 8.61743 1.1009 8.38309 0.86656C8.14876 0.632225 7.83104 0.5004 7.49964 0.500004Z" fill="white"/>
<path d="M9.50058 6.24992H9.00058V4.99991C9.00092 4.93429 9.02705 4.87143 9.07333 4.82491L12.4121 1.46414C12.4687 1.40719 12.5004 1.33017 12.5004 1.24989C12.5004 1.16961 12.4687 1.09259 12.4121 1.03564C12.3589 0.982561 12.2877 0.951389 12.2126 0.948287C12.1375 0.945185 12.064 0.97038 12.0066 1.01889L10.2951 2.47315C9.51483 3.13599 8.52436 3.4999 7.50057 3.4999C6.47677 3.4999 5.48631 3.13599 4.70605 2.47315L2.99454 1.01889C2.93507 0.967913 2.85809 0.942105 2.77991 0.946937C2.70173 0.95177 2.62851 0.986862 2.57577 1.04477C2.52302 1.10268 2.49491 1.17886 2.49739 1.25715C2.49987 1.33544 2.53274 1.40968 2.58904 1.46414L5.92781 4.82491C5.97409 4.87143 6.00022 4.93429 6.00056 4.99991V6.24992H5.50056V5.10316L2.23454 1.81689C2.08825 1.67074 2.0041 1.4737 1.99969 1.26696C1.99528 1.06022 2.07095 0.859777 2.21088 0.707521C2.3508 0.555264 2.54416 0.46298 2.75054 0.449957C2.95691 0.436933 3.16034 0.504177 3.3183 0.637635L5.0298 2.09214C5.71967 2.67819 6.59538 2.99993 7.50057 2.99993C8.40575 2.99993 9.28147 2.67819 9.97133 2.09214L11.6828 0.637635C11.8408 0.504177 12.0442 0.436933 12.2506 0.449957C12.457 0.46298 12.6503 0.555264 12.7903 0.707521C12.9302 0.859777 13.0059 1.06022 13.0014 1.26696C12.997 1.4737 12.9129 1.67074 12.7666 1.81689L9.50058 5.10316V6.24992Z" fill="white"/>
<path d="M7.50038 12.9998C5.45587 12.9998 4.88212 12.4853 4.82362 12.4266C4.77673 12.3797 4.75038 12.3161 4.75037 12.2498V11.2498C4.7509 10.7858 4.93544 10.341 5.26352 10.0129C5.59159 9.68486 6.03641 9.50032 6.50038 9.49979H8.50039C8.96435 9.50032 9.40917 9.68486 9.73725 10.0129C10.0653 10.341 10.2499 10.7858 10.2504 11.2498V12.2498C10.2504 12.3161 10.224 12.3797 10.1771 12.4266C10.1186 12.4853 9.54489 12.9998 7.50038 12.9998ZM5.25037 12.121C5.44462 12.2326 6.05987 12.4998 7.50038 12.4998C8.93439 12.4998 9.55039 12.2348 9.75039 12.1198V11.2498C9.75 10.9184 9.61817 10.6007 9.38384 10.3663C9.1495 10.132 8.83179 10.0002 8.50039 9.99979H6.50038C6.16898 10.0002 5.85126 10.132 5.61693 10.3663C5.38259 10.6007 5.25077 10.9184 5.25037 11.2498V12.121Z" fill="white"/>
<path d="M7.49964 9.99993C7.15352 9.99993 6.81518 9.89729 6.52739 9.705C6.2396 9.5127 6.0153 9.23939 5.88285 8.91962C5.75039 8.59985 5.71574 8.24798 5.78326 7.90851C5.85079 7.56904 6.01746 7.25722 6.2622 7.01247C6.50694 6.76773 6.81877 6.60106 7.15823 6.53354C7.4977 6.46601 7.84957 6.50067 8.16934 6.63312C8.48912 6.76558 8.76243 6.98988 8.95472 7.27767C9.14702 7.56545 9.24965 7.9038 9.24965 8.24992C9.24912 8.71389 9.06458 9.1587 8.7365 9.48678C8.40843 9.81485 7.96361 9.9994 7.49964 9.99993ZM7.49964 6.99991C7.25242 6.99991 7.01074 7.07322 6.80518 7.21058C6.59962 7.34793 6.4394 7.54315 6.34479 7.77156C6.25018 7.99997 6.22542 8.25131 6.27366 8.49378C6.32189 8.73626 6.44094 8.95899 6.61576 9.13381C6.79057 9.30862 7.0133 9.42768 7.25578 9.47591C7.49826 9.52414 7.74959 9.49938 7.978 9.40477C8.20641 9.31016 8.40163 9.14995 8.53899 8.94439C8.67634 8.73882 8.74965 8.49715 8.74965 8.24992C8.74925 7.91852 8.61743 7.6008 8.38309 7.36647C8.14876 7.13213 7.83104 7.00031 7.49964 6.99991Z" fill="white"/>
<path d="M12.25 12.2501C11.7315 12.2561 11.2136 12.2137 10.703 12.1234L10.797 11.6324C11.2766 11.7165 11.7631 11.7559 12.25 11.7501C13.684 11.7501 14.3 11.4851 14.5 11.3701V10.5001C14.4996 10.1687 14.3678 9.85099 14.1335 9.61665C13.8991 9.38232 13.5814 9.25049 13.25 9.2501H11.25C11.0437 9.24994 10.8406 9.30092 10.6588 9.39847C10.477 9.49602 10.3222 9.6371 10.2083 9.8091L9.79175 9.53235C9.95124 9.2916 10.1679 9.09415 10.4224 8.95764C10.6769 8.82113 10.9612 8.74982 11.25 8.75009H13.25C13.714 8.75062 14.1588 8.93517 14.4869 9.26324C14.815 9.59132 14.9995 10.0361 15 10.5001V11.5001C15 11.5664 14.9737 11.63 14.9268 11.6769C14.8683 11.7356 14.2945 12.2501 12.25 12.2501Z" fill="white"/>
<path d="M12.2501 9.24971C11.904 9.24971 11.5657 9.14708 11.2779 8.95478C10.9901 8.76249 10.7658 8.48918 10.6333 8.1694C10.5009 7.84963 10.4662 7.49776 10.5337 7.1583C10.6013 6.81883 10.7679 6.507 11.0127 6.26226C11.2574 6.01752 11.5693 5.85085 11.9087 5.78332C12.2482 5.7158 12.6001 5.75045 12.9198 5.88291C13.2396 6.01536 13.5129 6.23966 13.7052 6.52745C13.8975 6.81524 14.0001 7.15359 14.0001 7.49971C13.9996 7.96367 13.8151 8.40849 13.487 8.73656C13.1589 9.06464 12.7141 9.24919 12.2501 9.24971ZM12.2501 6.2497C12.0029 6.2497 11.7612 6.32301 11.5557 6.46036C11.3501 6.59771 11.1899 6.79294 11.0953 7.02135C11.0007 7.24976 10.9759 7.50109 11.0241 7.74357C11.0724 7.98605 11.1914 8.20878 11.3662 8.38359C11.5411 8.55841 11.7638 8.67746 12.0063 8.72569C12.2487 8.77393 12.5001 8.74917 12.7285 8.65456C12.9569 8.55995 13.1521 8.39973 13.2895 8.19417C13.4268 7.98861 13.5001 7.74693 13.5001 7.49971C13.4997 7.1683 13.3679 6.85059 13.1336 6.61626C12.8992 6.38192 12.5815 6.2501 12.2501 6.2497Z" fill="white"/>
<path d="M2.75001 12.2501C0.705504 12.2501 0.131751 11.7356 0.0732504 11.6769C0.0263628 11.63 1.41594e-05 11.5664 0 11.5001V10.5001C0.000529343 10.0361 0.185075 9.59132 0.513151 9.26324C0.841226 8.93517 1.28604 8.75062 1.75001 8.75009H3.75002C4.0388 8.74982 4.32315 8.82113 4.57763 8.95764C4.83211 9.09415 5.04878 9.2916 5.20828 9.53235L4.79178 9.8091C4.67784 9.6371 4.52305 9.49602 4.34126 9.39847C4.15947 9.30092 3.95633 9.24994 3.75002 9.2501H1.75001C1.41861 9.25049 1.1009 9.38232 0.86656 9.61665C0.632224 9.85099 0.5004 10.1687 0.500003 10.5001V11.3714C0.694254 11.4829 1.30951 11.7501 2.75001 11.7501C3.23695 11.7559 3.72338 11.7165 4.20302 11.6324L4.29702 12.1234C3.78643 12.2137 3.26851 12.2561 2.75001 12.2501Z" fill="white"/>
<path d="M2.75038 9.24971C2.40426 9.24971 2.06591 9.14708 1.77812 8.95478C1.49034 8.76249 1.26603 8.48918 1.13358 8.1694C1.00112 7.84963 0.966468 7.49776 1.03399 7.1583C1.10152 6.81883 1.26819 6.507 1.51293 6.26226C1.75768 6.01752 2.0695 5.85085 2.40897 5.78332C2.74844 5.7158 3.1003 5.75045 3.42008 5.88291C3.73985 6.01536 4.01316 6.23966 4.20546 6.52745C4.39775 6.81524 4.50039 7.15359 4.50039 7.49971C4.49986 7.96367 4.31531 8.40849 3.98724 8.73656C3.65916 9.06464 3.21435 9.24919 2.75038 9.24971ZM2.75038 6.2497C2.50315 6.2497 2.26147 6.32301 2.05591 6.46036C1.85035 6.59771 1.69013 6.79294 1.59552 7.02135C1.50091 7.24976 1.47616 7.50109 1.52439 7.74357C1.57262 7.98605 1.69167 8.20878 1.86649 8.38359C2.0413 8.55841 2.26403 8.67746 2.50651 8.72569C2.74899 8.77393 3.00032 8.74917 3.22873 8.65456C3.45714 8.55995 3.65237 8.39973 3.78972 8.19417C3.92707 7.98861 4.00038 7.74693 4.00038 7.49971C3.99999 7.1683 3.86816 6.85059 3.63383 6.61626C3.39949 6.38192 3.08178 6.2501 2.75038 6.2497Z" fill="white"/>
</svg>
