<svg width="8" height="12" viewBox="0 0 8 12" fill="none" xmlns="http://www.w3.org/2000/svg">
<path d="M6.8 4.00003V2.68403C6.79894 1.97251 6.51582 1.29044 6.0127 0.787324C5.50959 0.284206 4.82752 0.00108854 4.116 3.05176e-05H3.884C3.17248 0.00108854 2.49041 0.284206 1.98729 0.787324C1.48418 1.29044 1.20106 1.97251 1.2 2.68403V4.00003C0.88174 4.00003 0.576515 4.12646 0.351472 4.3515C0.126428 4.57654 0 4.88177 0 5.20003V8.92003C0.00105752 9.5244 0.241611 10.1037 0.668964 10.5311C1.09632 10.9584 1.67563 11.199 2.28 11.2H5.72C6.32437 11.199 6.90368 10.9584 7.33103 10.5311C7.75839 10.1037 7.99894 9.5244 8 8.92003V5.20003C8 4.88177 7.87357 4.57654 7.64853 4.3515C7.42348 4.12646 7.11826 4.00003 6.8 4.00003ZM2 2.68403C2 2.18436 2.19849 1.70516 2.55181 1.35184C2.90513 0.998523 3.38433 0.80003 3.884 0.80003H4.116C4.61567 0.80003 5.09487 0.998523 5.44819 1.35184C5.80151 1.70516 6 2.18436 6 2.68403V4.00003H2V2.68403ZM7.2 8.92003C7.2 9.31255 7.04407 9.68899 6.76652 9.96655C6.48896 10.2441 6.11252 10.4 5.72 10.4H2.28C1.88748 10.4 1.51104 10.2441 1.23348 9.96655C0.955928 9.68899 0.8 9.31255 0.8 8.92003V5.20003C0.8 5.09394 0.842143 4.9922 0.917157 4.91719C0.992172 4.84217 1.09391 4.80003 1.2 4.80003H6.8C6.90609 4.80003 7.00783 4.84217 7.08284 4.91719C7.15786 4.9922 7.2 5.09394 7.2 5.20003V8.92003Z" fill="white"/>
<path d="M4.39995 7.48803V8.80003C4.39995 8.90611 4.35781 9.00786 4.28279 9.08287C4.20778 9.15789 4.10604 9.20003 3.99995 9.20003C3.89386 9.20003 3.79212 9.15789 3.71711 9.08287C3.64209 9.00786 3.59995 8.90611 3.59995 8.80003V7.48803C3.44744 7.39997 3.32824 7.26406 3.26085 7.10136C3.19345 6.93865 3.18163 6.75826 3.22721 6.58815C3.27279 6.41805 3.37323 6.26773 3.51294 6.16053C3.65266 6.05332 3.82384 5.99521 3.99995 5.99521C4.17606 5.99521 4.34725 6.05332 4.48696 6.16053C4.62668 6.26773 4.72711 6.41805 4.77269 6.58815C4.81827 6.75826 4.80645 6.93865 4.73905 7.10136C4.67166 7.26406 4.55246 7.39997 4.39995 7.48803Z" fill="white"/>
</svg>
