<svg width="15" height="14" viewBox="0 0 15 14" fill="none" xmlns="http://www.w3.org/2000/svg">
<path d="M2.49963 5.74991H5.74963C5.88788 5.74991 5.99963 5.63791 5.99963 5.49991C5.99963 5.36191 5.88788 5.24991 5.74963 5.24991H2.49963C2.36138 5.24991 2.24963 5.36191 2.24963 5.49991C2.24963 5.63791 2.36138 5.74991 2.49963 5.74991Z" fill="white"/>
<path d="M8.99963 6.74979H2.49963C2.36138 6.74979 2.24963 6.86179 2.24963 6.99979C2.24963 7.13779 2.36138 7.24979 2.49963 7.24979H8.99963C9.13788 7.24979 9.24963 7.13779 9.24963 6.99979C9.24963 6.86179 9.13788 6.74979 8.99963 6.74979Z" fill="white"/>
<path d="M8.99963 8.25021H2.49963C2.36138 8.25021 2.24963 8.36221 2.24963 8.50021C2.24963 8.63821 2.36138 8.75021 2.49963 8.75021H8.99963C9.13788 8.75021 9.24963 8.63821 9.24963 8.50021C9.24963 8.36221 9.13788 8.25021 8.99963 8.25021Z" fill="white"/>
<path d="M13.518 0.0175L4.9825 0C4.165 0 3.5 0.665 3.5 1.4825V2.7635L1.4825 2.76775C0.665 2.76775 0 3.43275 0 4.25025V9.5355C0 10.353 0.665 11.0177 1.4825 11.0177H3V13.5177C3 13.621 3.0635 13.7138 3.16 13.751C3.18925 13.7622 3.21975 13.7677 3.25 13.7677C3.319 13.7677 3.38675 13.739 3.435 13.686L5.861 11.0173L10.0175 11.0002C10.835 11.0002 11.5 10.3352 11.5 9.518V9.48975L12.815 10.9362C12.8632 10.9893 12.931 11.018 13 11.018C13.0302 11.018 13.0608 11.0125 13.09 11.0013C13.1865 10.964 13.25 10.8712 13.25 10.768V8.268H13.5175C14.335 8.268 15 7.603 15 6.78575V1.5C15 0.68275 14.3352 0.01775 13.518 0.0175ZM11 9.51775C11 10.0595 10.5593 10.5 10.0165 10.5L5.749 10.5175C5.679 10.5177 5.612 10.5475 5.565 10.5992L3.5 12.871V10.7675C3.5 10.6295 3.38825 10.5175 3.25 10.5175H1.4825C0.94075 10.5175 0.5 10.0767 0.5 9.53525V4.25C0.5 3.70825 0.94075 3.2675 1.483 3.2675L3.75 3.26275C3.75025 3.26275 3.75025 3.26275 3.7505 3.26275L10.0175 3.24975C10.5592 3.24975 11 3.6905 11 4.23225V8.8425V9.51775ZM14.5 6.78525C14.5 7.327 14.0592 7.7675 13.5175 7.7675H13C12.8617 7.7675 12.75 7.8795 12.75 8.0175V10.121L11.5 8.746V4.2325C11.5 3.415 10.835 2.75 10.017 2.75L4 2.76225V1.48225C4 0.9405 4.44075 0.49975 4.982 0.49975L13.5173 0.51725C13.5175 0.51725 13.5175 0.51725 13.5177 0.51725C14.0595 0.51725 14.5002 0.958 14.5002 1.49975L14.5 6.78525Z" fill="white"/>
</svg>
