<svg width="15" height="16" viewBox="0 0 15 16" fill="none" xmlns="http://www.w3.org/2000/svg">
<mask id="path-1-inside-1_48_765" fill="white">
<path d="M14.8679 3.53083L7.60229 0.0233C7.53787 -0.00776666 7.46286 -0.00776666 7.39848 0.0233L0.132853 3.53083C0.0518418 3.56993 0.000366211 3.65197 0.000366211 3.74192V12.2602C0.000366211 12.3502 0.0518418 12.4322 0.132853 12.4713L7.39845 15.9788C7.43064 15.9944 7.46552 16.0021 7.50037 16.0021C7.53521 16.0021 7.57006 15.9944 7.60229 15.9788L14.8679 12.4713C14.9489 12.4322 15.0004 12.3502 15.0004 12.2602V3.74195C15.0004 3.65194 14.9489 3.56996 14.8679 3.53083ZM7.50037 0.494707L14.2268 3.74192L12.2769 4.68323C12.2646 4.67383 12.2516 4.66514 12.2372 4.65823L5.55651 1.43311L7.50037 0.494707ZM5.02713 1.69815L11.7438 4.94064L10.3681 5.60476L3.65426 2.36358L5.02713 1.69815ZM11.9009 5.38533V7.84022L10.616 8.46055V6.00566L11.9009 5.38533ZM14.5316 12.1131L7.73477 15.3943V7.39656L9.35602 6.6139C9.4726 6.55761 9.52148 6.4175 9.46519 6.30089C9.4089 6.18434 9.26879 6.1354 9.15218 6.19172L7.50037 6.98917L6.8504 6.67537C6.7338 6.61902 6.59368 6.66797 6.53739 6.78455C6.48111 6.90112 6.52999 7.04127 6.64657 7.09756L7.26596 7.39656V15.3943L0.469179 12.1131V4.11538L5.64487 6.61399C5.67772 6.62987 5.71244 6.63737 5.7466 6.63737C5.83374 6.63737 5.91744 6.58855 5.95785 6.50482C6.01414 6.38824 5.96526 6.2481 5.84868 6.19181L0.773938 3.74192L3.10253 2.61777L10.1439 6.01707C10.1449 6.01851 10.1461 6.01979 10.1472 6.02119V8.83404C10.1472 8.9147 10.1886 8.98968 10.257 9.03259C10.2949 9.05641 10.3382 9.06844 10.3816 9.06844C10.4163 9.06844 10.4512 9.06072 10.4835 9.04513L12.2372 8.19848C12.3183 8.15938 12.3697 8.07737 12.3697 7.98739V5.15905L14.5316 4.11541V12.1131Z"/>
</mask>
<path d="M14.8679 3.53083L7.60229 0.0233C7.53787 -0.00776666 7.46286 -0.00776666 7.39848 0.0233L0.132853 3.53083C0.0518418 3.56993 0.000366211 3.65197 0.000366211 3.74192V12.2602C0.000366211 12.3502 0.0518418 12.4322 0.132853 12.4713L7.39845 15.9788C7.43064 15.9944 7.46552 16.0021 7.50037 16.0021C7.53521 16.0021 7.57006 15.9944 7.60229 15.9788L14.8679 12.4713C14.9489 12.4322 15.0004 12.3502 15.0004 12.2602V3.74195C15.0004 3.65194 14.9489 3.56996 14.8679 3.53083ZM7.50037 0.494707L14.2268 3.74192L12.2769 4.68323C12.2646 4.67383 12.2516 4.66514 12.2372 4.65823L5.55651 1.43311L7.50037 0.494707ZM5.02713 1.69815L11.7438 4.94064L10.3681 5.60476L3.65426 2.36358L5.02713 1.69815ZM11.9009 5.38533V7.84022L10.616 8.46055V6.00566L11.9009 5.38533ZM14.5316 12.1131L7.73477 15.3943V7.39656L9.35602 6.6139C9.4726 6.55761 9.52148 6.4175 9.46519 6.30089C9.4089 6.18434 9.26879 6.1354 9.15218 6.19172L7.50037 6.98917L6.8504 6.67537C6.7338 6.61902 6.59368 6.66797 6.53739 6.78455C6.48111 6.90112 6.52999 7.04127 6.64657 7.09756L7.26596 7.39656V15.3943L0.469179 12.1131V4.11538L5.64487 6.61399C5.67772 6.62987 5.71244 6.63737 5.7466 6.63737C5.83374 6.63737 5.91744 6.58855 5.95785 6.50482C6.01414 6.38824 5.96526 6.2481 5.84868 6.19181L0.773938 3.74192L3.10253 2.61777L10.1439 6.01707C10.1449 6.01851 10.1461 6.01979 10.1472 6.02119V8.83404C10.1472 8.9147 10.1886 8.98968 10.257 9.03259C10.2949 9.05641 10.3382 9.06844 10.3816 9.06844C10.4163 9.06844 10.4512 9.06072 10.4835 9.04513L12.2372 8.19848C12.3183 8.15938 12.3697 8.07737 12.3697 7.98739V5.15905L14.5316 4.11541V12.1131Z" fill="white"/>
<path d="M14.8679 3.53083L16.1731 0.829654L16.1721 0.829176L14.8679 3.53083ZM7.60229 0.0233L8.90653 -2.67835L8.90551 -2.67885L7.60229 0.0233ZM7.39848 0.0233L6.09474 -2.6786L6.09423 -2.67836L7.39848 0.0233ZM0.132853 3.53083L1.43684 6.23261L1.4371 6.23249L0.132853 3.53083ZM0.132853 12.4713L1.4371 9.76965L1.43684 9.76952L0.132853 12.4713ZM7.39845 15.9788L6.0942 18.6805L6.09471 18.6807L7.39845 15.9788ZM7.60229 15.9788L8.90499 18.6812L8.90653 18.6805L7.60229 15.9788ZM14.8679 12.4713L13.5639 9.76952L13.5636 9.76965L14.8679 12.4713ZM15.0004 3.74195H12.0004H15.0004ZM7.50037 0.494707L8.80461 -2.20695L7.50037 -2.83658L6.19613 -2.20695L7.50037 0.494707ZM14.2268 3.74192L15.531 6.44357L21.1273 3.7419L15.531 1.04026L14.2268 3.74192ZM12.2769 4.68323L10.4586 7.06939L11.9231 8.18535L13.5812 7.38489L12.2769 4.68323ZM12.2372 4.65823L10.933 7.3599L10.9335 7.36012L12.2372 4.65823ZM5.55651 1.43311L4.25227 -1.26854L-1.34409 1.43313L4.25229 4.13478L5.55651 1.43311ZM5.02713 1.69815L6.33137 -1.00351L5.0245 -1.63441L3.71863 -1.00145L5.02713 1.69815ZM11.7438 4.94064L13.048 7.64229L18.6443 4.94061L13.048 2.23898L11.7438 4.94064ZM10.3681 5.60476L9.06387 8.30642L10.3681 8.93606L11.6724 8.30641L10.3681 5.60476ZM3.65426 2.36358L2.34576 -0.336017L-3.23503 2.369L2.35001 5.06523L3.65426 2.36358ZM11.9009 5.38533H14.9009V0.605726L10.5967 2.68368L11.9009 5.38533ZM11.9009 7.84022L13.2052 10.5419L14.9009 9.72322V7.84022H11.9009ZM10.616 8.46055H7.61597V13.2402L11.9202 11.1622L10.616 8.46055ZM10.616 6.00566L9.3117 3.30401L7.61597 4.12266V6.00566H10.616ZM14.5316 12.1131L15.8358 14.8148L17.5316 13.9962V12.1131H14.5316ZM7.73477 15.3943H4.73477V20.1738L9.03899 18.0959L7.73477 15.3943ZM7.73477 7.39656L6.43053 4.69491L4.73477 5.51355V7.39656H7.73477ZM9.35602 6.6139L10.6603 9.31555L10.6604 9.31546L9.35602 6.6139ZM9.46519 6.30089L12.1669 4.99674L12.1666 4.99617L9.46519 6.30089ZM9.15218 6.19172L10.4565 8.89336L10.4569 8.89314L9.15218 6.19172ZM7.50037 6.98917L6.19606 9.69079L7.50035 10.3205L8.80464 9.69081L7.50037 6.98917ZM6.8504 6.67537L5.54508 9.37651L5.5461 9.377L6.8504 6.67537ZM6.64657 7.09756L5.34214 9.79912L5.34235 9.79923L6.64657 7.09756ZM7.26596 7.39656H10.266V5.51352L8.57017 4.69489L7.26596 7.39656ZM7.26596 15.3943L5.96172 18.0959L10.266 20.1738V15.3943H7.26596ZM0.469179 12.1131H-2.53082V13.9961L-0.835063 14.8147L0.469179 12.1131ZM0.469179 4.11538L1.77343 1.41372L-2.53082 -0.664195V4.11538H0.469179ZM5.64487 6.61399L6.95041 3.91296L6.94912 3.91234L5.64487 6.61399ZM5.95785 6.50482L3.25628 5.20039L3.25607 5.20083L5.95785 6.50482ZM5.84868 6.19181L7.15311 3.49024L7.15293 3.49016L5.84868 6.19181ZM0.773938 3.74192L-0.530311 1.04027L-6.12657 3.74192L-0.530315 6.44357L0.773938 3.74192ZM3.10253 2.61777L4.40678 -0.0838818L3.10253 -0.713522L1.79828 -0.0838828L3.10253 2.61777ZM10.1439 6.01707L12.5815 4.26834L12.1362 3.64756L11.4482 3.31542L10.1439 6.01707ZM10.1472 6.02119H13.1472V5.01528L12.5408 4.21269L10.1472 6.02119ZM10.257 9.03259L8.66132 11.5731L8.66207 11.5735L10.257 9.03259ZM10.4835 9.04513L9.17924 6.34347L9.17858 6.34379L10.4835 9.04513ZM12.2372 8.19848L10.9333 5.4967L10.933 5.49683L12.2372 8.19848ZM12.3697 5.15905L11.0655 2.45739L9.36973 3.27603V5.15905H12.3697ZM14.5316 4.11541H17.5316V-0.664164L13.2273 1.41375L14.5316 4.11541ZM14.8679 3.53083L16.1721 0.829176L8.90653 -2.67835L7.60229 0.0233L6.29804 2.72495L13.5636 6.23248L14.8679 3.53083ZM7.60229 0.0233L8.90551 -2.67885C8.01786 -3.10695 6.98304 -3.10723 6.09474 -2.6786L7.39848 0.0233L8.70221 2.7252C7.94268 3.0917 7.05788 3.09142 6.29907 2.72545L7.60229 0.0233ZM7.39848 0.0233L6.09423 -2.67836L-1.17139 0.829174L0.132853 3.53083L1.4371 6.23249L8.70272 2.72496L7.39848 0.0233ZM0.132853 3.53083L-1.17113 0.829049C-2.28964 1.36888 -2.99963 2.50109 -2.99963 3.74192H0.000366211H3.00037C3.00037 4.80285 2.39332 5.77098 1.43684 6.23261L0.132853 3.53083ZM0.000366211 3.74192H-2.99963V12.2602H0.000366211H3.00037V3.74192H0.000366211ZM0.000366211 12.2602H-2.99963C-2.99963 13.501 -2.28965 14.6332 -1.17113 15.1731L0.132853 12.4713L1.43684 9.76952C2.39333 10.2312 3.00037 11.1993 3.00037 12.2602H0.000366211ZM0.132853 12.4713L-1.1714 15.173L6.0942 18.6805L7.39845 15.9788L8.70269 13.2772L1.4371 9.76965L0.132853 12.4713ZM7.39845 15.9788L6.09471 18.6807C6.53815 18.8947 7.01922 19.0021 7.50037 19.0021V16.0021V13.0021C7.91181 13.0021 8.32312 13.094 8.70218 13.2769L7.39845 15.9788ZM7.50037 16.0021V19.0021C7.98212 19.0021 8.46268 18.8945 8.90499 18.6812L7.60229 15.9788L6.29958 13.2764C6.67745 13.0943 7.08831 13.0021 7.50037 13.0021V16.0021ZM7.60229 15.9788L8.90653 18.6805L16.1721 15.173L14.8679 12.4713L13.5636 9.76965L6.29804 13.2772L7.60229 15.9788ZM14.8679 12.4713L16.1719 15.1731C17.2904 14.6332 18.0004 13.501 18.0004 12.2602H15.0004H12.0004C12.0004 11.1993 12.6074 10.2312 13.5639 9.76952L14.8679 12.4713ZM15.0004 12.2602H18.0004V3.74195H15.0004H12.0004V12.2602H15.0004ZM15.0004 3.74195H18.0004C18.0004 2.49989 17.2894 1.36905 16.1731 0.829654L14.8679 3.53083L13.5626 6.23201C12.6083 5.77087 12.0004 4.80399 12.0004 3.74195H15.0004ZM7.50037 0.494707L6.19613 3.19637L12.9226 6.44358L14.2268 3.74192L15.531 1.04026L8.80461 -2.20695L7.50037 0.494707ZM14.2268 3.74192L12.9225 1.04027L10.9727 1.98158L12.2769 4.68323L13.5812 7.38489L15.531 6.44357L14.2268 3.74192ZM12.2769 4.68323L14.0953 2.29708C13.9861 2.21387 13.7971 2.07993 13.541 1.95634L12.2372 4.65823L10.9335 7.36012C10.706 7.25035 10.5431 7.13378 10.4586 7.06939L12.2769 4.68323ZM12.2372 4.65823L13.5415 1.95657L6.86074 -1.26855L5.55651 1.43311L4.25229 4.13478L10.933 7.3599L12.2372 4.65823ZM5.55651 1.43311L6.86075 4.13477L8.80461 3.19636L7.50037 0.494707L6.19613 -2.20695L4.25227 -1.26854L5.55651 1.43311ZM5.02713 1.69815L3.72289 4.39981L10.4395 7.6423L11.7438 4.94064L13.048 2.23898L6.33137 -1.00351L5.02713 1.69815ZM11.7438 4.94064L10.4395 2.239L9.06386 2.90312L10.3681 5.60476L11.6724 8.30641L13.048 7.64229L11.7438 4.94064ZM10.3681 5.60476L11.6724 2.90311L4.95851 -0.338073L3.65426 2.36358L2.35001 5.06523L9.06387 8.30642L10.3681 5.60476ZM3.65426 2.36358L4.96276 5.06318L6.33563 4.39775L5.02713 1.69815L3.71863 -1.00145L2.34576 -0.336017L3.65426 2.36358ZM11.9009 5.38533H8.90092V7.84022H11.9009H14.9009V5.38533H11.9009ZM11.9009 7.84022L10.5967 5.13857L9.31171 5.7589L10.616 8.46055L11.9202 11.1622L13.2052 10.5419L11.9009 7.84022ZM10.616 8.46055H13.616V6.00566H10.616H7.61597V8.46055H10.616ZM10.616 6.00566L11.9202 8.70731L13.2052 8.08697L11.9009 5.38533L10.5967 2.68368L9.3117 3.30401L10.616 6.00566ZM14.5316 12.1131L13.2273 9.41146L6.43055 12.6926L7.73477 15.3943L9.03899 18.0959L15.8358 14.8148L14.5316 12.1131ZM7.73477 15.3943H10.7348V7.39656H7.73477H4.73477V15.3943H7.73477ZM7.73477 7.39656L9.03901 10.0982L10.6603 9.31555L9.35602 6.6139L8.05178 3.91224L6.43053 4.69491L7.73477 7.39656ZM9.35602 6.6139L10.6604 9.31546C12.269 8.53879 12.9434 6.6053 12.1669 4.99674L9.46519 6.30089L6.76349 7.60503C6.0996 6.2297 6.67619 4.57643 8.05159 3.91233L9.35602 6.6139ZM9.46519 6.30089L12.1666 4.99617C11.3904 3.38905 9.4574 2.71272 7.84745 3.4903L9.15218 6.19172L10.4569 8.89314C9.08018 9.55807 7.42738 8.97963 6.76376 7.6056L9.46519 6.30089ZM9.15218 6.19172L7.8479 3.49008L6.19609 4.28753L7.50037 6.98917L8.80464 9.69081L10.4565 8.89336L9.15218 6.19172ZM7.50037 6.98917L8.80467 4.28754L8.15471 3.97375L6.8504 6.67537L5.5461 9.377L6.19606 9.69079L7.50037 6.98917ZM6.8504 6.67537L8.15572 3.97424C6.54529 3.196 4.61189 3.87284 3.83583 5.48012L6.53739 6.78455L9.23896 8.08897C8.57548 9.4631 6.9223 10.042 5.54508 9.37651L6.8504 6.67537ZM6.53739 6.78455L3.83583 5.48012C3.05907 7.08883 3.73363 9.02247 5.34214 9.79912L6.64657 7.09756L7.95099 4.39599C9.32635 5.06007 9.90314 6.71342 9.23896 8.08897L6.53739 6.78455ZM6.64657 7.09756L5.34235 9.79923L5.96175 10.0982L7.26596 7.39656L8.57017 4.69489L7.95078 4.39588L6.64657 7.09756ZM7.26596 7.39656H4.26596V15.3943H7.26596H10.266V7.39656H7.26596ZM7.26596 15.3943L8.5702 12.6926L1.77342 9.41141L0.469179 12.1131L-0.835063 14.8147L5.96172 18.0959L7.26596 15.3943ZM0.469179 12.1131H3.46918V4.11538H0.469179H-2.53082V12.1131H0.469179ZM0.469179 4.11538L-0.835071 6.81703L4.34062 9.31565L5.64487 6.61399L6.94912 3.91234L1.77343 1.41372L0.469179 4.11538ZM5.64487 6.61399L4.33933 9.31502C4.78872 9.53223 5.2709 9.63737 5.7466 9.63737V6.63737V3.63737C6.15398 3.63737 6.56672 3.72751 6.95041 3.91296L5.64487 6.61399ZM5.7466 6.63737V9.63737C6.94118 9.63737 8.09988 8.96857 8.65963 7.80881L5.95785 6.50482L3.25607 5.20083C3.73499 4.20853 4.72629 3.63737 5.7466 3.63737V6.63737ZM5.95785 6.50482L8.65942 7.80925C9.43616 6.20055 8.76163 4.2669 7.15311 3.49024L5.84868 6.19181L4.54425 8.89338C3.16888 8.22929 2.59211 6.57594 3.25628 5.20039L5.95785 6.50482ZM5.84868 6.19181L7.15293 3.49016L2.07819 1.04027L0.773938 3.74192L-0.530315 6.44357L4.54442 8.89346L5.84868 6.19181ZM0.773938 3.74192L2.07819 6.44357L4.40678 5.31943L3.10253 2.61777L1.79828 -0.0838828L-0.530311 1.04027L0.773938 3.74192ZM3.10253 2.61777L1.79828 5.31942L8.83965 8.71872L10.1439 6.01707L11.4482 3.31542L4.40678 -0.0838818L3.10253 2.61777ZM10.1439 6.01707L7.70629 7.76579C7.73796 7.80994 7.76537 7.84561 7.78436 7.86982C7.80255 7.89301 7.81724 7.911 7.82023 7.91467C7.82076 7.91532 7.82119 7.91584 7.82146 7.91618C7.82172 7.9165 7.82194 7.91677 7.82195 7.91678C7.82216 7.91703 7.82149 7.91622 7.82071 7.91526C7.81914 7.91334 7.81488 7.90811 7.80944 7.90135C7.79876 7.88808 7.77838 7.86255 7.75355 7.82969L10.1472 6.02119L12.5408 4.21269C12.5154 4.17914 12.4945 4.15292 12.4833 4.13897C12.4775 4.13187 12.473 4.1263 12.4712 4.12404C12.4706 4.12341 12.4702 4.1229 12.47 4.12257C12.4698 4.12241 12.4697 4.12227 12.4696 4.12218C12.4696 4.1221 12.4695 4.12202 12.4695 4.12201C12.4693 4.12179 12.47 4.12262 12.4708 4.12361C12.4733 4.12661 12.4874 4.14393 12.505 4.16642C12.5235 4.18994 12.5504 4.22491 12.5815 4.26834L10.1439 6.01707ZM10.1472 6.02119H7.14716V8.83404H10.1472H13.1472V6.02119H10.1472ZM10.1472 8.83404H7.14716C7.14716 9.94747 7.71972 10.9817 8.66132 11.5731L10.257 9.03259L11.8526 6.49213C12.6575 6.99771 13.1472 7.88194 13.1472 8.83404H10.1472ZM10.257 9.03259L8.66207 11.5735C9.18667 11.9028 9.78442 12.0684 10.3816 12.0684V9.06844V6.06844C10.8919 6.06844 11.4031 6.21001 11.8518 6.49166L10.257 9.03259ZM10.3816 9.06844V12.0684C10.8608 12.0684 11.3425 11.9618 11.7884 11.7465L10.4835 9.04513L9.17858 6.34379C9.55987 6.1596 9.97189 6.06844 10.3816 6.06844V9.06844ZM10.4835 9.04513L11.7877 11.7468L13.5415 10.9001L12.2372 8.19848L10.933 5.49683L9.17924 6.34347L10.4835 9.04513ZM12.2372 8.19848L13.5412 10.9003C14.6595 10.3605 15.3697 9.22849 15.3697 7.98739H12.3697H9.36973C9.36973 6.92626 9.97699 5.95824 10.9333 5.4967L12.2372 8.19848ZM12.3697 7.98739H15.3697V5.15905H12.3697H9.36973V7.98739H12.3697ZM12.3697 5.15905L13.674 7.8607L15.8358 6.81706L14.5316 4.11541L13.2273 1.41375L11.0655 2.45739L12.3697 5.15905ZM14.5316 4.11541H11.5316V12.1131H14.5316H17.5316V4.11541H14.5316Z" fill="white" mask="url(#path-1-inside-1_48_765)"/>
<path d="M2.30029 11.4146L2.37451 11.4507M2.30029 11.4146L2.19873 11.6245M2.30029 11.4146H2.30127L2.37451 11.4507M2.30029 11.4146L2.19873 11.6245M2.37451 11.4507C2.34118 11.5197 2.3008 11.5831 2.25732 11.6431C2.25481 11.6426 2.25202 11.6437 2.24951 11.6431L2.19971 11.6255L2.19873 11.6245M2.37451 11.4507C2.40818 11.381 2.43361 11.3089 2.45361 11.2368C2.43858 11.224 2.42149 11.2127 2.40283 11.2036L1.33643 10.689M2.19873 11.6245L1.1333 11.1109M1.33643 10.689L1.1333 11.1109M1.33643 10.689C1.31799 10.6801 1.29896 10.6742 1.27979 10.6704C1.23585 10.7308 1.19529 10.795 1.16162 10.8648C1.12814 10.9342 1.1015 11.005 1.08154 11.0767C1.09659 11.0897 1.11359 11.1007 1.13232 11.1099M1.33643 10.689L1.23389 10.8999M1.1333 11.1109L1.23486 10.8999H1.23389M1.1333 11.1109L1.13232 11.1099M1.13232 11.1099L1.23389 10.8999M1.13232 11.1099L1.23389 10.8999" fill="white" stroke="white" stroke-width="3"/>
<path d="M2.45593 10.117C2.43574 10.1916 2.40966 10.2656 2.37488 10.3377C2.3401 10.4098 2.29857 10.4767 2.25281 10.5389L2.05945 10.4461C2.07964 10.3716 2.10671 10.2975 2.14148 10.2254C2.17642 10.1531 2.21859 10.0865 2.26453 10.0243L2.45593 10.117Z" fill="white" stroke="white" stroke-width="3"/>
</svg>
