<svg width="14" height="14" viewBox="0 0 14 14" fill="none" xmlns="http://www.w3.org/2000/svg">
<path d="M12.9746 0.820312H12.1543C12.041 0.820312 11.9492 0.912133 11.9492 1.02539C11.9492 1.13865 12.041 1.23047 12.1543 1.23047H12.9746C13.3138 1.23047 13.5898 1.50645 13.5898 1.8457C13.4183 1.71721 13.2053 1.64062 12.9746 1.64062H5.12695C5.0137 1.64062 4.92188 1.73245 4.92188 1.8457V2.46094H4.51172V1.02539C4.51172 0.686137 4.7877 0.410156 5.12695 0.410156H7.72078C7.99468 0.410156 8.25218 0.516797 8.44583 0.710473L8.90578 1.17039C8.94425 1.20887 8.99639 1.23047 9.05078 1.23047H11.334C11.4473 1.23047 11.5391 1.13865 11.5391 1.02539C11.5391 0.912133 11.4473 0.820312 11.334 0.820312H9.13571L8.73586 0.420465C8.46472 0.149324 8.10425 0 7.72078 0H5.12695C4.56154 0 4.10156 0.459977 4.10156 1.02539V2.46094H3.07617C2.51076 2.46094 2.05078 2.92091 2.05078 3.48633V4.92188H1.02539C0.459977 4.92188 0 5.38185 0 5.94727V12.1543C0 12.7197 0.459977 13.1797 1.02539 13.1797H7.23242C7.34571 13.1797 7.4375 13.0879 7.4375 12.9746C7.4375 12.8614 7.34571 12.7695 7.23242 12.7695H1.02539C0.686137 12.7695 0.410156 12.4936 0.410156 12.1543V8.4082C0.410156 8.06895 0.686137 7.79297 1.02539 7.79297H3.61922C3.67361 7.79297 3.72578 7.77137 3.76422 7.73289L4.22414 7.27297C4.41782 7.0793 4.67532 6.97266 4.94922 6.97266H8.87305C9.21227 6.97266 9.48828 7.24864 9.48828 7.58789V12.1543C9.48828 12.4936 9.21227 12.7695 8.87305 12.7695H8.05273C7.93945 12.7695 7.84766 12.8614 7.84766 12.9746C7.84766 13.0879 7.93945 13.1797 8.05273 13.1797H8.87305C9.43846 13.1797 9.89844 12.7197 9.89844 12.1543V10.7188H10.9238C11.4892 10.7188 11.9492 10.2588 11.9492 9.69336V8.25781H12.9746C13.54 8.25781 14 7.79784 14 7.23242V1.8457C14 1.28029 13.54 0.820312 12.9746 0.820312ZM5.33203 2.05078H10.0084C10.0049 2.05428 10.0012 2.05756 9.99761 2.06109L9.59777 2.46094H5.33203V2.05078ZM2.46094 3.48633C2.46094 3.14707 2.73692 2.87109 3.07617 2.87109H5.67C5.94387 2.87109 6.20137 2.97776 6.39507 3.17141L6.855 3.63133C6.89344 3.6698 6.94561 3.69141 7 3.69141H10.9238C11.2631 3.69141 11.5391 3.96739 11.5391 4.30664C11.3676 4.17815 11.1545 4.10156 10.9238 4.10156H3.07617C2.96291 4.10156 2.87109 4.19338 2.87109 4.30664V4.92188H2.46094V3.48633ZM7.95766 4.51172C7.95411 4.51522 7.95039 4.5185 7.94683 4.52203L7.54698 4.92188H3.28125V4.51172H7.95766ZM3.93414 6.98297L3.53429 7.38281H1.23047V6.97266H3.94496C3.94138 6.97616 3.93766 6.97944 3.93414 6.98297ZM8.87305 6.5625H1.02539C0.912133 6.5625 0.820312 6.65432 0.820312 6.76758V7.40346C0.668855 7.43433 0.529457 7.4987 0.410156 7.58846V5.94727C0.410156 5.60801 0.686137 5.33203 1.02539 5.33203H3.61922C3.89309 5.33203 4.15059 5.4387 4.34429 5.63235L4.80421 6.09227C4.84266 6.13074 4.89483 6.15234 4.94922 6.15234H8.87305C9.21227 6.15234 9.48828 6.42832 9.48828 6.76758C9.31678 6.63909 9.10372 6.5625 8.87305 6.5625ZM11.5391 9.69336C11.5391 10.0326 11.2631 10.3086 10.9238 10.3086H9.89844V6.76758C9.89844 6.20216 9.43846 5.74219 8.87305 5.74219H5.03415L4.6343 5.34234C4.63077 5.33881 4.62705 5.33553 4.62347 5.33203H7.63191C7.6863 5.33203 7.73845 5.31043 7.77695 5.27196L8.23687 4.81204C8.43052 4.61836 8.68798 4.51172 8.96191 4.51172H10.9238C11.2631 4.51172 11.5391 4.7877 11.5391 5.12695V9.69336ZM13.5898 7.23242C13.5898 7.57168 13.3138 7.84766 12.9746 7.84766H11.9492V4.30664C11.9492 3.74123 11.4892 3.28125 10.9238 3.28125H7.08493L6.68508 2.8814C6.68155 2.87787 6.67784 2.87459 6.67425 2.87109H9.6827C9.73708 2.87109 9.78923 2.84949 9.8277 2.81102L10.2876 2.3511C10.4813 2.15742 10.7388 2.05078 11.0127 2.05078H12.9746C13.3138 2.05078 13.5898 2.32676 13.5898 2.66602V7.23242Z" fill="#FFFBFC"/>
</svg>
