<svg width="14" height="17" viewBox="0 0 14 17" fill="none" xmlns="http://www.w3.org/2000/svg">
<path d="M1.8353 16.1734H12.1679C13.1787 16.1702 13.9968 15.3521 14 14.3413V13.5326C14 11.5552 13.1692 9.66934 11.7067 8.33947C11.097 7.78667 10.1904 7.71086 9.49865 8.15625C8.77527 8.6206 7.91291 8.86699 7 8.86699C6.0871 8.86699 5.22473 8.6206 4.50136 8.15625C3.80957 7.71086 2.90299 7.78667 2.29333 8.33947C0.830784 9.66934 -0.00314999 11.5552 8.58307e-06 13.5326V14.3413C0.00316715 15.3553 0.824467 16.1734 1.8353 16.1734ZM10.4842 8.49741C10.7811 8.49741 11.0654 8.60797 11.2834 8.80698C12.6133 10.0168 13.3714 11.7352 13.3714 13.5326V14.3413C13.3682 15.0046 12.8344 15.5385 12.171 15.5416H1.83846C1.1751 15.5416 0.638095 15.0046 0.638095 14.3413V13.5326C0.638095 11.7352 1.39622 10.02 2.72609 8.80698C3.1241 8.44687 3.71481 8.39633 4.16652 8.68694C4.99098 9.21763 5.97338 9.49876 7.00632 9.49876C8.03926 9.49876 9.02166 9.21763 9.84612 8.68694C10.0325 8.56374 10.2568 8.49741 10.4842 8.49741Z" fill="white"/>
<path d="M7.00004 8.15004C9.24914 8.14688 11.0718 6.32423 11.075 4.07514C11.075 1.8292 9.24914 0.000228882 7.00004 0.000228882C4.75095 0.00338772 2.9283 1.82604 2.92514 4.07514C2.9283 6.32107 4.75411 8.15004 7.00004 8.15004ZM7.00004 0.635156C8.90167 0.635156 10.4432 2.17667 10.4432 4.0783C10.4432 5.97992 8.90167 7.52143 7.00004 7.52143C5.09842 7.52143 3.55691 5.97992 3.55691 4.0783C3.56006 2.17667 5.09842 0.635156 7.00004 0.635156Z" fill="white"/>
</svg>
