<svg width="15" height="14" viewBox="0 0 15 14" fill="none" xmlns="http://www.w3.org/2000/svg">
<path d="M14.5588 8.43754L13.8469 8.29135C13.8254 8.23385 13.8024 8.17693 13.7779 8.12061L14.1764 7.51737C14.2472 7.41176 14.2789 7.28483 14.266 7.15843C14.2531 7.03203 14.1963 6.91408 14.1056 6.82489L13.3804 6.10208C13.2909 6.01163 13.1725 5.9551 13.0457 5.94221C12.919 5.92933 12.7916 5.9609 12.6856 6.0315L12.0996 6.41613C12.0353 6.38678 11.9701 6.35952 11.904 6.33437L11.7626 5.65045C11.7377 5.52583 11.6701 5.41375 11.5713 5.33349C11.4725 5.25323 11.3487 5.20982 11.2212 5.21074H10.793V2.48918C10.793 1.78834 10.2062 1.14592 9.14062 0.68039C8.13661 0.241728 6.80689 0 5.39648 0C3.98607 0 2.6562 0.241582 1.65234 0.680244C0.586757 1.14577 0 1.78814 0 2.48903V11.5108C0 12.2117 0.586757 12.8541 1.65234 13.3196C2.65632 13.7583 3.98607 14 5.39648 14C7.03634 14 8.59569 13.6606 9.60523 13.0884L9.65436 13.3262C9.67919 13.4508 9.74682 13.5629 9.84563 13.6431C9.94443 13.7234 10.0682 13.7668 10.1957 13.7659H11.2211C11.3485 13.7668 11.4723 13.7234 11.5711 13.6431C11.6699 13.5628 11.7376 13.4507 11.7624 13.3261L11.9209 12.5596C11.9575 12.5454 11.994 12.5305 12.0302 12.5149L12.6856 12.945C12.7915 13.0156 12.9189 13.0472 13.0457 13.0343C13.1725 13.0214 13.2908 12.9649 13.3803 12.8744L14.1055 12.1516C14.1963 12.0624 14.253 11.9445 14.2659 11.8181C14.2789 11.6917 14.2472 11.5648 14.1763 11.4591L13.7574 10.825C13.7774 10.7809 13.7964 10.7365 13.8145 10.6918L14.5586 10.5389C14.6837 10.5142 14.7962 10.4468 14.8768 10.3483C14.9574 10.2498 15.0009 10.1264 15 9.99928V8.97723C15.0009 8.85016 14.9574 8.72674 14.8769 8.62822C14.7963 8.52971 14.6839 8.46227 14.5588 8.43754ZM5.39648 0.467191C8.34412 0.467191 10.3242 1.5126 10.3242 2.48903C10.3242 3.46546 8.34415 4.51087 5.39648 4.51087C2.44977 4.51087 0.470039 3.46608 0.468749 2.48993V2.48847C0.469511 1.51222 2.44939 0.467191 5.39648 0.467191ZM1.65234 4.29782C2.65632 4.73648 3.98607 4.97821 5.39648 4.97821C6.80689 4.97821 8.13673 4.73659 9.14062 4.29782C9.64745 4.07641 10.0455 3.81494 10.3242 3.52626V5.21065H10.1957C10.0683 5.20972 9.94448 5.25313 9.84567 5.33339C9.74686 5.41365 9.67922 5.52574 9.65439 5.65036L9.51301 6.33425C9.44703 6.35945 9.38182 6.3867 9.31736 6.41602L8.73119 6.03138C8.62524 5.96076 8.49789 5.92917 8.37108 5.94206C8.24428 5.95495 8.12595 6.0115 8.03648 6.10199L7.31135 6.82478C7.23954 6.89535 7.1887 6.98434 7.16446 7.08191C7.14022 7.17948 7.14351 7.28183 7.17398 7.37765C6.5863 7.47254 5.99184 7.51948 5.39651 7.51802C2.44951 7.51802 0.469658 6.47302 0.468779 5.49679V3.52629C0.747333 3.81494 1.14551 4.07641 1.65234 4.29782ZM1.65234 7.30508C2.65632 7.74377 3.98607 7.98547 5.39648 7.98547C6.07886 7.98732 6.76001 7.92752 7.43155 7.80679L7.63898 8.12088C7.61443 8.17712 7.59147 8.23397 7.5701 8.29144L6.85819 8.43765C6.73316 8.46239 6.6207 8.5298 6.54017 8.62828C6.45964 8.72677 6.41609 8.85016 6.417 8.9772V9.99925C6.41646 10.0895 6.43839 10.1785 6.48083 10.2582C6.52326 10.338 6.58489 10.4059 6.66017 10.4561C6.24057 10.5028 5.81868 10.5259 5.39648 10.5254C2.44922 10.5254 0.46916 9.4802 0.468749 8.50379V6.53355C0.747304 6.82224 1.14551 7.08371 1.65234 7.30508ZM9.47258 12.6241C8.53924 13.193 7.01545 13.5326 5.39645 13.5326C2.44884 13.5326 0.46872 12.4872 0.46872 11.5108V9.54082C0.747275 9.8295 1.14548 10.091 1.65231 10.3124C2.65629 10.751 3.98604 10.9928 5.39645 10.9928C6.14894 10.9957 6.89979 10.9226 7.63748 10.7746C7.64481 10.7914 7.65157 10.8085 7.65916 10.8252L7.24045 11.459C7.1696 11.5646 7.1379 11.6915 7.15083 11.8179C7.16375 11.9443 7.22049 12.0622 7.31126 12.1514L8.03642 12.8742C8.12589 12.9647 8.24423 13.0213 8.37104 13.0341C8.49785 13.047 8.6252 13.0154 8.73116 12.9448L9.3865 12.5148C9.42271 12.5303 9.45918 12.5452 9.4959 12.5594L9.50583 12.6075C9.49432 12.6121 9.4832 12.6177 9.47258 12.6241ZM14.5312 9.99928C14.5318 10.0187 14.5253 10.0376 14.513 10.0527C14.5007 10.0677 14.4834 10.0778 14.4642 10.0812L13.5939 10.26C13.5545 10.2681 13.5177 10.2862 13.4873 10.3126C13.4569 10.3389 13.4339 10.3727 13.4204 10.4105C13.3804 10.5225 13.3334 10.632 13.2798 10.7381C13.2612 10.7748 13.2527 10.8157 13.2551 10.8568C13.2575 10.8978 13.2707 10.9374 13.2934 10.9717L13.7849 11.7159C13.796 11.7318 13.8011 11.7512 13.7991 11.7705C13.7971 11.7898 13.7882 11.8077 13.7741 11.8211L13.049 12.5438C13.0356 12.5579 13.0176 12.5667 12.9982 12.5687C12.9789 12.5707 12.9595 12.5656 12.9435 12.5546L12.1801 12.0536C12.1463 12.0315 12.1074 12.0184 12.0671 12.0157C12.0268 12.013 11.9864 12.0207 11.95 12.0381C11.8498 12.0859 11.7469 12.1279 11.6418 12.1639C11.6032 12.1771 11.5688 12.2 11.5419 12.2305C11.515 12.261 11.4965 12.2979 11.4883 12.3377L11.3035 13.2317C11.3 13.2508 11.2899 13.268 11.2748 13.2803C11.2597 13.2925 11.2407 13.299 11.2212 13.2985H10.1958C10.1764 13.299 10.1574 13.2925 10.1423 13.2803C10.1272 13.268 10.117 13.2508 10.1136 13.2317L9.9287 12.3377C9.92048 12.298 9.902 12.261 9.87507 12.2305C9.84814 12.2 9.81371 12.1771 9.77516 12.1639C9.67008 12.128 9.56719 12.0861 9.46698 12.0383C9.43053 12.0209 9.39018 12.0132 9.34985 12.0159C9.30953 12.0186 9.27059 12.0317 9.23683 12.0539L8.47353 12.5548C8.45756 12.5658 8.43815 12.5709 8.4188 12.5689C8.39945 12.5669 8.38145 12.5581 8.36806 12.5441L7.6427 11.8211C7.62857 11.8077 7.61972 11.7898 7.61775 11.7705C7.61577 11.7512 7.62081 11.7318 7.63194 11.7159L8.1234 10.9718C8.14607 10.9375 8.15927 10.8979 8.16166 10.8568C8.16404 10.8158 8.15554 10.7749 8.13699 10.7382C8.08334 10.632 8.03637 10.5225 7.99637 10.4104C7.98287 10.3726 7.95981 10.3388 7.92941 10.3125C7.89902 10.2861 7.86231 10.268 7.82284 10.2599L6.95273 10.0812C6.93356 10.0778 6.91626 10.0676 6.90397 10.0526C6.89167 10.0375 6.8852 10.0186 6.88573 9.99919V8.97715C6.8852 8.95775 6.89167 8.93882 6.90397 8.92378C6.91626 8.90874 6.93357 8.89861 6.95273 8.89521L7.7951 8.72222C7.83569 8.7139 7.87335 8.69501 7.90423 8.66746C7.9351 8.63992 7.9581 8.6047 7.97088 8.56541C8.01134 8.44118 8.06028 8.31985 8.11736 8.20229C8.13504 8.16589 8.14293 8.12553 8.14027 8.08518C8.1376 8.04482 8.12447 8.00585 8.10216 7.97207L7.63183 7.26046C7.6207 7.24455 7.61566 7.2252 7.61764 7.2059C7.61962 7.18661 7.62848 7.16867 7.64261 7.15534L8.36773 6.43255C8.38112 6.41848 8.39913 6.40967 8.41848 6.4077C8.43783 6.40574 8.45724 6.41075 8.4732 6.42183L9.17047 6.87927C9.20502 6.90194 9.24498 6.91509 9.28628 6.91739C9.32759 6.91969 9.36876 6.91105 9.40563 6.89235C9.52986 6.82938 9.65852 6.77551 9.7906 6.73116C9.82944 6.71814 9.86418 6.6952 9.89136 6.66462C9.91853 6.63404 9.93718 6.59689 9.94546 6.55689L10.1133 5.74471C10.1168 5.72561 10.1269 5.70836 10.142 5.69611C10.1571 5.68385 10.1761 5.6774 10.1956 5.67793H11.221C11.2404 5.6774 11.2594 5.68385 11.2745 5.69611C11.2896 5.70836 11.2998 5.72561 11.3032 5.74471L11.4711 6.55691C11.4794 6.59692 11.498 6.63406 11.5252 6.66464C11.5524 6.69522 11.5871 6.71817 11.626 6.73119C11.758 6.77553 11.8867 6.82939 12.0109 6.89235C12.0478 6.91105 12.089 6.91969 12.1303 6.91739C12.1716 6.91509 12.2115 6.90194 12.2461 6.87927L12.9433 6.42174C12.9593 6.41065 12.9787 6.40562 12.9981 6.40758C13.0174 6.40955 13.0354 6.41836 13.0488 6.43243L13.774 7.15525C13.7881 7.16859 13.797 7.18653 13.7989 7.20582C13.8009 7.22511 13.7959 7.24447 13.7847 7.26037L13.3149 7.97178C13.2925 8.00556 13.2794 8.04454 13.2768 8.0849C13.2741 8.12527 13.282 8.16562 13.2997 8.20203C13.3568 8.31964 13.4057 8.44102 13.4462 8.56529C13.4589 8.60458 13.4819 8.6398 13.5128 8.66735C13.5437 8.69489 13.5814 8.71379 13.6219 8.7221L14.4642 8.89506C14.4834 8.89845 14.5007 8.9086 14.513 8.92366C14.5253 8.93871 14.5318 8.95768 14.5312 8.97709V9.99928ZM10.7084 7.47138C10.3082 7.47138 9.91703 7.58966 9.58428 7.81126C9.25152 8.03287 8.99217 8.34786 8.83902 8.71638C8.68587 9.08491 8.64579 9.49043 8.72387 9.88165C8.80194 10.2729 8.99465 10.6322 9.27764 10.9143C9.56062 11.1964 9.92116 11.3884 10.3137 11.4663C10.7062 11.5441 11.113 11.5041 11.4827 11.3515C11.8525 11.1988 12.1685 10.9403 12.3908 10.6087C12.6132 10.277 12.7318 9.88706 12.7318 9.48817C12.7312 8.95347 12.5178 8.44085 12.1385 8.06276C11.7592 7.68467 11.2449 7.47199 10.7084 7.47138ZM10.7084 11.0378C10.401 11.0378 10.1004 10.9469 9.8447 10.7766C9.58903 10.6064 9.38976 10.3643 9.27209 10.0812C9.15442 9.79804 9.12362 9.48647 9.18361 9.18587C9.24359 8.88528 9.39166 8.60917 9.60908 8.39245C9.8265 8.17573 10.1035 8.02814 10.4051 7.96835C10.7067 7.90856 11.0193 7.93924 11.3033 8.05653C11.5874 8.17381 11.8302 8.37243 12.0011 8.62726C12.1719 8.88209 12.2631 9.18169 12.2631 9.48817C12.2626 9.899 12.0987 10.2929 11.8072 10.5834C11.5158 10.8739 11.1206 11.0373 10.7084 11.0378Z" fill="white"/>
</svg>
