<svg width="22" height="19" viewBox="0 0 22 19" fill="none" xmlns="http://www.w3.org/2000/svg">
<path d="M21.2379 15.5722L12.4121 0.935384C12.0644 0.358766 11.4301 0.000549316 10.7568 0.000549316C10.0834 0.000549316 9.44915 0.358766 9.10139 0.935426L0.275705 15.5722C-0.0836462 16.1682 -0.0942784 16.9149 0.247927 17.5209C0.590216 18.1268 1.23512 18.5033 1.93105 18.5033H19.5825C20.2784 18.5033 20.9234 18.1268 21.2657 17.5208C21.6079 16.9148 21.5972 16.1681 21.2379 15.5722ZM20.0459 16.832C19.9517 16.9988 19.7741 17.1025 19.5825 17.1025H1.93105C1.73946 17.1025 1.56191 16.9988 1.46773 16.832C1.37351 16.6652 1.37645 16.4596 1.47534 16.2956L10.3011 1.65879C10.3968 1.50007 10.5715 1.40144 10.7568 1.40144C10.9421 1.40144 11.1168 1.50007 11.2125 1.65879L20.0382 16.2956C20.1371 16.4596 20.1401 16.6652 20.0459 16.832Z" fill="#FE9F0E"/>
<path d="M10.7647 5.76382C10.2318 5.76382 9.81592 6.04976 9.81592 6.55666C9.81592 8.10324 9.99784 10.3257 9.99784 11.8723C9.99788 12.2752 10.3488 12.4441 10.7647 12.4441C11.0766 12.4441 11.5185 12.2752 11.5185 11.8723C11.5185 10.3257 11.7004 8.10329 11.7004 6.55666C11.7004 6.0498 11.2716 5.76382 10.7647 5.76382Z" fill="#FE9F0E"/>
<path d="M10.7762 13.3414C10.2043 13.3414 9.77539 13.7962 9.77539 14.3421C9.77539 14.875 10.2043 15.3429 10.7762 15.3429C11.309 15.3429 11.7639 14.875 11.7639 14.3421C11.7639 13.7962 11.309 13.3414 10.7762 13.3414Z" fill="#FE9F0E"/>
</svg>
