<svg width="37" height="37" viewBox="0 0 37 37" fill="none" xmlns="http://www.w3.org/2000/svg">
<rect width="37" height="37" rx="5" fill="#DCFCE7"/>
<path d="M27.0526 20.3971C27.4393 18.4049 27.4956 16.1453 27.2196 13.6732C27.2008 13.5053 27.0676 13.3736 26.9004 13.3577C23.9404 13.0757 21.2548 11.9726 18.9182 10.079C18.7882 9.97367 18.603 9.97367 18.4729 10.079C16.1363 11.9726 13.4507 13.0757 10.4907 13.3577C10.3234 13.3736 10.1903 13.5053 10.1715 13.6732C9.71051 17.8018 10.18 21.3048 11.5669 24.0849C11.8549 24.6623 12.1845 25.211 12.5537 25.7313C12.5642 25.7495 12.5764 25.7667 12.59 25.7828C14.0054 27.7561 16.004 29.3119 18.5547 30.421C18.5997 30.4405 18.6476 30.4503 18.6955 30.4503C18.7435 30.4503 18.7914 30.4405 18.8363 30.421C19.6916 30.0491 20.4923 29.6235 21.2218 29.1534C22.2354 30.8569 24.0879 32 26.2011 32C29.3986 32 32 29.3833 32 26.167C32 23.2417 29.8479 20.8126 27.0526 20.3971ZM10.8463 14.0383C13.74 13.7108 16.3781 12.6265 18.6955 10.8122C21.013 12.6265 23.651 13.7108 26.5447 14.0383C26.7807 16.358 26.7117 18.4731 26.3406 20.3358C26.2942 20.3347 26.2477 20.334 26.201 20.334C24.7139 20.334 23.3559 20.9003 22.3284 21.8294C21.7587 21.4322 21.138 21.1351 20.4838 20.9443C21.6395 20.3063 22.4248 19.0705 22.4248 17.6535C22.4248 15.5851 20.7518 13.9023 18.6955 13.9023C16.6392 13.9023 14.9662 15.5851 14.9662 17.6535C14.9662 19.0722 15.7534 20.3094 16.9113 20.9467C15.0276 21.4983 13.4702 22.9033 12.7417 24.7738C11.0177 22.0247 10.394 18.4633 10.8463 14.0383ZM18.6955 20.6908C17.0305 20.6908 15.6759 19.3283 15.6759 17.6535C15.6759 15.9787 17.0305 14.6162 18.6955 14.6162C20.3605 14.6162 21.7151 15.9787 21.7151 17.6535C21.7151 19.3283 20.3605 20.6908 18.6955 20.6908ZM18.6955 29.7037C16.3638 28.6665 14.5489 27.2724 13.2419 25.5064C13.9495 23.0842 16.1717 21.4047 18.6956 21.4047C19.8216 21.4047 20.8942 21.73 21.8219 22.3474C20.938 23.3715 20.4023 24.7074 20.4023 26.1669C20.4023 27.0023 20.5781 27.7971 20.894 28.5163C20.2219 28.9539 19.4844 29.3524 18.6955 29.7036V29.7037ZM26.2011 31.286C23.395 31.286 21.112 28.9896 21.112 26.1669C21.112 23.3443 23.395 21.0479 26.2011 21.0479C29.0073 21.0479 31.2903 23.3442 31.2903 26.1669C31.2903 28.9896 29.0073 31.286 26.2011 31.286ZM28.2398 24.1993H27.7439V23.3806C27.7439 22.5249 27.0518 21.8287 26.2011 21.8287C25.3505 21.8287 24.6584 22.5249 24.6584 23.3806V24.1993H24.1625C23.7509 24.1993 23.416 24.5362 23.416 24.9502V29.0515C23.416 29.4655 23.7509 29.8024 24.1625 29.8024H28.2398C28.6514 29.8024 28.9863 29.4655 28.9863 29.0515V24.9502C28.9863 24.5362 28.6514 24.1993 28.2398 24.1993ZM25.3681 23.3806C25.3681 22.9185 25.7418 22.5426 26.2011 22.5426C26.6604 22.5426 27.0341 22.9185 27.0341 23.3806V24.1993H25.3681V23.3806H25.3681ZM28.2766 29.0515C28.2766 29.0712 28.2594 29.0885 28.2398 29.0885H24.1625C24.1429 29.0885 24.1257 29.0712 24.1257 29.0515V24.9502C24.1257 24.9305 24.1429 24.9132 24.1625 24.9132H28.2398C28.2594 24.9132 28.2766 24.9305 28.2766 24.9502V29.0515ZM27.5128 26.458L26.1285 28.0189C26.0628 28.093 25.9694 28.1362 25.8707 28.1382C25.8684 28.1382 25.866 28.1382 25.8637 28.1382C25.7675 28.1382 25.6754 28.0989 25.6084 28.0293L24.8989 27.2903C24.7628 27.1485 24.7668 26.9225 24.9077 26.7855C25.0487 26.6486 25.2733 26.6525 25.4095 26.7943L25.8534 27.2567L26.9832 25.9828C27.1135 25.8356 27.338 25.8227 27.4842 25.954C27.6305 26.0852 27.6433 26.3109 27.5128 26.458Z" fill="#004B1A"/>
</svg>
