<svg width="37" height="37" viewBox="0 0 37 37" fill="none" xmlns="http://www.w3.org/2000/svg">
<rect width="37" height="37" rx="5" fill="#CCFBF1"/>
<path d="M8.35484 28.2258H8.70968V16.5161C8.70968 16.422 8.74706 16.3318 8.81361 16.2652C8.88015 16.1987 8.97041 16.1613 9.06452 16.1613H12.9677V8.35484C12.9677 8.26073 13.0051 8.17047 13.0717 8.10393C13.1382 8.03738 13.2285 8 13.3226 8H24.6774C24.7715 8 24.8618 8.03738 24.9283 8.10393C24.9949 8.17047 25.0323 8.26073 25.0323 8.35484V12.6129H28.9355C29.0296 12.6129 29.1198 12.6503 29.1864 12.7168C29.2529 12.7834 29.2903 12.8736 29.2903 12.9677V28.2258H29.6452C29.7393 28.2258 29.8295 28.2632 29.8961 28.3297C29.9626 28.3963 30 28.4865 30 28.5806V29.6452C30 29.7393 29.9626 29.8295 29.8961 29.8961C29.8295 29.9626 29.7393 30 29.6452 30H8.35484C8.26073 30 8.17048 29.9626 8.10393 29.8961C8.03739 29.8295 8 29.7393 8 29.6452V28.5806C8 28.4865 8.03739 28.3963 8.10393 28.3297C8.17048 28.2632 8.26073 28.2258 8.35484 28.2258ZM12.9677 16.871H9.41936V28.2258H12.9677V16.871ZM24.3226 8.70968H13.6774V28.2258H16.1613V22.9032C16.1613 22.8091 16.1987 22.7189 16.2652 22.6523C16.3318 22.5858 16.422 22.5484 16.5161 22.5484H21.4839C21.578 22.5484 21.6682 22.5858 21.7348 22.6523C21.8013 22.7189 21.8387 22.8091 21.8387 22.9032V28.2258H24.3226V8.70968ZM16.871 23.2581V28.2258H18.6452V23.2581H16.871ZM19.3548 23.2581V28.2258H21.129V23.2581H19.3548ZM28.5806 13.3226H25.0323V28.2258H28.5806V13.3226ZM8.70968 29.2903H29.2903V28.9355H8.70968V29.2903Z" fill="#004C3C"/>
<path d="M25.7419 13.6774H27.871C27.9651 13.6774 28.0553 13.7148 28.1219 13.7814C28.1884 13.8479 28.2258 13.9382 28.2258 14.0323V16.1613C28.2258 16.2554 28.1884 16.3457 28.1219 16.4122C28.0553 16.4788 27.9651 16.5161 27.871 16.5161H25.7419C25.6478 16.5161 25.5576 16.4788 25.491 16.4122C25.4245 16.3457 25.3871 16.2554 25.3871 16.1613V14.0323C25.3871 13.9382 25.4245 13.8479 25.491 13.7814C25.5576 13.7148 25.6478 13.6774 25.7419 13.6774ZM26.0968 15.8065H27.5161V14.3871H26.0968V15.8065Z" fill="#004C3C"/>
<path d="M25.7419 17.2258H27.871C27.9651 17.2258 28.0553 17.2632 28.1219 17.3297C28.1884 17.3963 28.2258 17.4865 28.2258 17.5806V19.7097C28.2258 19.8038 28.1884 19.894 28.1219 19.9606C28.0553 20.0271 27.9651 20.0645 27.871 20.0645H25.7419C25.6478 20.0645 25.5576 20.0271 25.491 19.9606C25.4245 19.894 25.3871 19.8038 25.3871 19.7097V17.5806C25.3871 17.4865 25.4245 17.3963 25.491 17.3297C25.5576 17.2632 25.6478 17.2258 25.7419 17.2258ZM26.0968 19.3548H27.5161V17.9355H26.0968V19.3548Z" fill="#004C3C"/>
<path d="M25.7419 20.7742H27.871C27.9651 20.7742 28.0553 20.8116 28.1219 20.8781C28.1884 20.9447 28.2258 21.0349 28.2258 21.129V23.2581C28.2258 23.3522 28.1884 23.4424 28.1219 23.509C28.0553 23.5755 27.9651 23.6129 27.871 23.6129H25.7419C25.6478 23.6129 25.5576 23.5755 25.491 23.509C25.4245 23.4424 25.3871 23.3522 25.3871 23.2581V21.129C25.3871 21.0349 25.4245 20.9447 25.491 20.8781C25.5576 20.8116 25.6478 20.7742 25.7419 20.7742ZM26.0968 22.9032H27.5161V21.4839H26.0968V22.9032Z" fill="#004C3C"/>
<path d="M12.2581 20.0645H10.129C10.0349 20.0645 9.94468 20.0271 9.87813 19.9606C9.81159 19.894 9.77421 19.8038 9.77421 19.7097V17.5806C9.77421 17.4865 9.81159 17.3963 9.87813 17.3297C9.94468 17.2632 10.0349 17.2258 10.129 17.2258H12.2581C12.3522 17.2258 12.4424 17.2632 12.509 17.3297C12.5755 17.3963 12.6129 17.4865 12.6129 17.5806V19.7097C12.6129 19.8038 12.5755 19.894 12.509 19.9606C12.4424 20.0271 12.3522 20.0645 12.2581 20.0645ZM11.9032 17.9355H10.4839V19.3548H11.9032V17.9355Z" fill="#004C3C"/>
<path d="M12.2581 23.6129H10.129C10.0349 23.6129 9.94468 23.5755 9.87813 23.509C9.81159 23.4424 9.77421 23.3522 9.77421 23.2581V21.129C9.77421 21.0349 9.81159 20.9447 9.87813 20.8781C9.94468 20.8116 10.0349 20.7742 10.129 20.7742H12.2581C12.3522 20.7742 12.4424 20.8116 12.509 20.8781C12.5755 20.9447 12.6129 21.0349 12.6129 21.129V23.2581C12.6129 23.3522 12.5755 23.4424 12.509 23.509C12.4424 23.5755 12.3522 23.6129 12.2581 23.6129ZM11.9032 21.4839H10.4839V22.9032H11.9032V21.4839Z" fill="#004C3C"/>
<path d="M23.2581 21.4839H14.7419C14.6478 21.4839 14.5576 21.4465 14.491 21.3799C14.4245 21.3134 14.3871 21.2231 14.3871 21.129V18.2903C14.3871 18.1962 14.4245 18.106 14.491 18.0394C14.5576 17.9729 14.6478 17.9355 14.7419 17.9355H23.2581C23.3522 17.9355 23.4424 17.9729 23.509 18.0394C23.5755 18.106 23.6129 18.1962 23.6129 18.2903V21.129C23.6129 21.2231 23.5755 21.3134 23.509 21.3799C23.4424 21.4465 23.3522 21.4839 23.2581 21.4839ZM19.3549 20.7742H20.7742V18.6452H19.3549V20.7742ZM18.6452 18.6452H17.2258V20.7742H18.6452V18.6452ZM15.0968 20.7742H16.5161V18.6452H15.0968V20.7742ZM22.9032 18.6452H21.4839V20.7742H22.9032V18.6452Z" fill="#004C3C"/>
<path d="M23.2581 17.2258H14.7419C14.6478 17.2258 14.5576 17.1884 14.491 17.1219C14.4245 17.0553 14.3871 16.9651 14.3871 16.871V14.0323C14.3871 13.9382 14.4245 13.8479 14.491 13.7814C14.5576 13.7148 14.6478 13.6774 14.7419 13.6774H23.2581C23.3522 13.6774 23.4424 13.7148 23.509 13.7814C23.5755 13.8479 23.6129 13.9382 23.6129 14.0323V16.871C23.6129 16.9651 23.5755 17.0553 23.509 17.1219C23.4424 17.1884 23.3522 17.2258 23.2581 17.2258ZM19.3549 16.5161H20.7742V14.3871H19.3549V16.5161ZM18.6452 14.3871H17.2258V16.5161H18.6452V14.3871ZM15.0968 16.5161H16.5161V14.3871H15.0968V16.5161ZM22.9032 14.3871H21.4839V16.5161H22.9032V14.3871Z" fill="#004C3C"/>
<path d="M23.2581 12.9677H14.7419C14.6478 12.9677 14.5576 12.9303 14.491 12.8638C14.4245 12.7973 14.3871 12.707 14.3871 12.6129V9.77418C14.3871 9.68007 14.4245 9.58982 14.491 9.52327C14.5576 9.45673 14.6478 9.41934 14.7419 9.41934H23.2581C23.3522 9.41934 23.4424 9.45673 23.509 9.52327C23.5755 9.58982 23.6129 9.68007 23.6129 9.77418V12.6129C23.6129 12.707 23.5755 12.7973 23.509 12.8638C23.4424 12.9303 23.3522 12.9677 23.2581 12.9677ZM19.3549 12.2581H20.7742V10.129H19.3549V12.2581ZM18.6452 10.129H17.2258V12.2581H18.6452V10.129ZM15.0968 12.2581H16.5161V10.129H15.0968V12.2581ZM22.9032 10.129H21.4839V12.2581H22.9032V10.129Z" fill="#004C3C"/>
</svg>
