<svg width="12" height="12" viewBox="0 0 12 12" fill="none" xmlns="http://www.w3.org/2000/svg">
<g clip-path="url(#clip0_22_329)">
<path d="M0.191291 9.26668L4.778 1.32227C5.03305 0.880525 5.48987 0.61676 6.00001 0.61676C6.51012 0.61676 6.96697 0.880525 7.22201 1.32227L11.8087 9.26666C12.0638 9.70845 12.0638 10.2359 11.8087 10.6777C11.5536 11.1195 11.0968 11.3832 10.5867 11.3832H1.41332C0.903203 11.3832 0.446383 11.1195 0.191291 10.6777C-0.0637789 10.2359 -0.0637789 9.70845 0.191291 9.26668ZM0.800149 10.3262C0.928141 10.5479 1.15736 10.6802 1.41332 10.6802H10.5867C10.8427 10.6802 11.0719 10.5479 11.1999 10.3262C11.3278 10.1045 11.3278 9.83989 11.1999 9.61822L6.61313 1.67381C6.48516 1.45214 6.25594 1.31981 5.99998 1.31981C5.74405 1.31981 5.5148 1.45214 5.38684 1.67381L0.800125 9.61822C0.67218 9.83989 0.67218 10.1045 0.800149 10.3262Z" fill="#FC5058"/>
<path d="M5.64853 4.12521H6.35156V7.64041H5.64853V4.12521Z" fill="#FC5058"/>
<path d="M6.00005 8.34351C6.25849 8.34351 6.46875 8.55376 6.46875 8.81221C6.46875 9.07065 6.25849 9.28091 6.00005 9.28091C5.74163 9.28091 5.53135 9.07065 5.53135 8.81221C5.53135 8.55376 5.7416 8.34351 6.00005 8.34351Z" fill="#FC5058"/>
</g>
<defs>
<clipPath id="clip0_22_329">
<rect width="12" height="12" fill="white" transform="matrix(-1 0 0 1 12 0)"/>
</clipPath>
</defs>
</svg>
