<svg width="24" height="24" viewBox="0 0 24 24" fill="none" xmlns="http://www.w3.org/2000/svg">
<path d="M23.8043 3.11009C23.7902 3.0968 20.9965 0.432508 20.9965 0.432508C20.8897 0.330033 20.7792 0.224121 20.573 0.224121H9.32584C8.99733 0.224121 8.73004 0.491363 8.73004 0.819876V2.64932L4.766 3.32883C4.44827 3.38457 4.23458 3.68865 4.28963 4.00606L4.49082 5.17909C3.20236 5.61268 1.87953 6.05964 0.602496 6.51836C0.30074 6.62869 0.142383 6.96422 0.25006 7.26778L2.79032 14.3293C2.84142 14.4714 2.97534 14.5599 3.11819 14.5599C3.1573 14.5599 3.19716 14.5533 3.23608 14.5393C3.41716 14.4741 3.51113 14.2746 3.446 14.0935L0.943319 7.13637C2.14644 6.70562 3.3924 6.28401 4.61006 5.87416L5.80719 12.8534L7.1847 20.8912C7.23445 21.175 7.48385 21.3769 7.76536 21.3769C7.79722 21.3769 7.82956 21.3743 7.86198 21.3689L11.5929 20.7287L14.5082 20.2289L10.1235 21.8049L6.66582 23.0481L3.98049 15.579C3.91541 15.398 3.71589 15.304 3.53477 15.3691C3.3537 15.4342 3.25973 15.6337 3.32481 15.8148L6.04823 23.39C6.13533 23.6282 6.361 23.7763 6.59953 23.7763C6.66545 23.7763 6.73239 23.765 6.79761 23.7412L10.3592 22.4606L18.4463 19.5539L19.9913 19.2891H23.4042C23.7327 19.2891 24 19.0212 24 18.692V3.50266C24.0001 3.29413 23.8869 3.18775 23.8043 3.11009ZM22.8812 3.19259H21.1379L21.0947 3.19277C21.0112 3.19333 20.8158 3.19477 20.7662 3.14553C20.7548 3.13415 20.7414 3.09615 20.7414 3.02559L20.7374 1.1482L22.8812 3.19259ZM23.3033 18.5922H9.42683V11.8024C9.42683 11.6099 9.27084 11.454 9.07843 11.454C8.88603 11.454 8.73004 11.6099 8.73004 11.8024V18.6919C8.73004 19.0211 8.99733 19.289 9.32584 19.289H15.8669L11.4751 20.0418L7.8526 20.6635L6.49395 12.7356L4.99497 3.9965L8.72999 3.35624V10.1858C8.72999 10.3782 8.88598 10.5342 9.07839 10.5342C9.27079 10.5342 9.42678 10.3782 9.42678 10.1858V0.920865H20.0401L20.0446 3.02638C20.0446 3.28159 20.1222 3.48802 20.2753 3.64002C20.5105 3.87354 20.8429 3.88979 21.0493 3.88979C21.0671 3.88979 21.0839 3.88965 21.0996 3.88956L23.3033 3.88942V18.5922Z" fill="#7A1F3D"/>
<path d="M11.1069 5.63355C11.1069 5.82596 11.2628 5.98195 11.4553 5.98195H21.4164C21.6088 5.98195 21.7648 5.82596 21.7648 5.63355C21.7648 5.44114 21.6088 5.28516 21.4164 5.28516H11.4553C11.2628 5.28516 11.1069 5.44114 11.1069 5.63355Z" fill="#7A1F3D"/>
<path d="M21.4164 7.76074H11.4553C11.2628 7.76074 11.1069 7.91673 11.1069 8.10914C11.1069 8.30154 11.2628 8.45753 11.4553 8.45753H21.4164C21.6088 8.45753 21.7648 8.30154 21.7648 8.10914C21.7648 7.91673 21.6088 7.76074 21.4164 7.76074Z" fill="#7A1F3D"/>
<path d="M21.4164 10.2354H11.4553C11.2628 10.2354 11.1069 10.3913 11.1069 10.5837C11.1069 10.7762 11.2628 10.9321 11.4553 10.9321H21.4164C21.6088 10.9321 21.7648 10.7762 21.7648 10.5837C21.7648 10.3913 21.6088 10.2354 21.4164 10.2354Z" fill="#7A1F3D"/>
<path d="M21.4164 12.7109H11.4553C11.2628 12.7109 11.1069 12.8669 11.1069 13.0593C11.1069 13.2517 11.2628 13.4077 11.4553 13.4077H21.4164C21.6088 13.4077 21.7648 13.2517 21.7648 13.0593C21.7648 12.8669 21.6088 12.7109 21.4164 12.7109Z" fill="#7A1F3D"/>
<path d="M21.4164 15.1855H11.4553C11.2628 15.1855 11.1069 15.3415 11.1069 15.5339C11.1069 15.7263 11.2628 15.8823 11.4553 15.8823H21.4164C21.6088 15.8823 21.7648 15.7263 21.7648 15.5339C21.7648 15.3415 21.6088 15.1855 21.4164 15.1855Z" fill="#7A1F3D"/>
</svg>
