<svg width="29" height="21" viewBox="0 0 29 21" fill="none" xmlns="http://www.w3.org/2000/svg">
<path d="M23.7739 18.8645L5.22568 0.316873L5.22172 0.312342C5.1213 0.212742 5.00224 0.133896 4.87135 0.0803057C4.74046 0.0267155 4.6003 -0.00056956 4.45887 9.01204e-06C4.31743 0.000587584 4.1775 0.0290185 4.04705 0.0836777C3.9166 0.138337 3.7982 0.218154 3.6986 0.318573C3.599 0.418991 3.52015 0.538044 3.46656 0.668934C3.41297 0.799824 3.38568 0.939988 3.38626 1.08142C3.38743 1.36706 3.50202 1.64054 3.70483 1.84169L5.32877 3.46563C3.35937 4.81444 1.6642 6.52517 0.333461 8.50682C0.116152 8.82767 0 9.20628 0 9.59379C0 9.9813 0.116152 10.3599 0.333461 10.6808C3.73032 15.7084 9.11532 18.6538 14.5003 18.617C16.2446 18.6233 17.9773 18.3329 19.6242 17.7583L22.253 20.387C22.4555 20.583 22.7269 20.6918 23.0087 20.6898C23.2906 20.6879 23.5604 20.5755 23.7603 20.3768C23.9601 20.178 24.074 19.9088 24.0775 19.627C24.081 19.3452 23.9738 19.0732 23.779 18.8696L23.7739 18.8645ZM14.5003 15.6936C13.4801 15.6933 12.4762 15.4372 11.5804 14.9488C10.6846 14.4605 9.92553 13.7554 9.37247 12.8981C8.81941 12.0408 8.49003 11.0585 8.41443 10.041C8.33884 9.02359 8.51944 8.00342 8.93973 7.07377L10.6362 8.77021C10.4995 9.41412 10.5259 10.082 10.713 10.7131C10.9 11.3442 11.2418 11.9186 11.7073 12.384C12.1727 12.8495 12.7471 13.1912 13.3782 13.3783C14.0093 13.5654 14.6772 13.5918 15.3211 13.4551L17.0175 15.1516C16.2268 15.5101 15.3685 15.6949 14.5003 15.6936Z" fill="#883651"/>
<path d="M28.6667 8.50382C25.2699 3.47339 19.8849 0.527977 14.4999 0.564794C12.7556 0.558476 11.0229 0.84885 9.37598 1.4235L11.9815 4.02905C13.1122 3.51739 14.3719 3.36246 15.5928 3.5849C16.8137 3.80734 17.9379 4.39659 18.8154 5.27412C19.6929 6.15166 20.2822 7.27579 20.5046 8.49671C20.7271 9.71763 20.5721 10.9774 20.0605 12.108L23.6709 15.7184C25.6406 14.3698 27.336 12.659 28.6667 10.6772C28.8839 10.3564 29 9.9779 29 9.5905C29 9.20311 28.8839 8.8246 28.6667 8.50382Z" fill="#883651"/>
<path d="M15.5004 5.64069C15.2246 5.64072 14.9495 5.66958 14.6797 5.72678L19.3646 10.4111C19.4868 9.83558 19.4788 9.24002 19.3413 8.66794C19.2039 8.09586 18.9403 7.56172 18.57 7.10452C18.1997 6.64733 17.7319 6.27864 17.2008 6.02538C16.6697 5.77212 16.0888 5.64069 15.5004 5.64069Z" fill="#883651"/>
</svg>
