<svg width="12" height="12" viewBox="0 0 12 12" fill="none" xmlns="http://www.w3.org/2000/svg">
<path d="M10.7439 8.92221C10.5362 8.76768 10.2426 8.81083 10.0881 9.01851C10.0031 9.13275 9.91213 9.2448 9.81775 9.35156C9.64631 9.5455 9.66452 9.84175 9.85846 10.0132C9.94767 10.0921 10.0584 10.1308 10.1688 10.1308C10.2984 10.1308 10.4275 10.0773 10.5201 9.97249C10.6319 9.84607 10.7396 9.71336 10.8402 9.57806C10.9948 9.37038 10.9517 9.07671 10.7439 8.92221Z" fill="#FE9A00"/>
<path d="M11.5278 6.72389C11.275 6.66884 11.0252 6.82927 10.9701 7.08221C10.9398 7.22136 10.9032 7.36076 10.8612 7.49661C10.7848 7.74397 10.9234 8.00642 11.1707 8.08285C11.2168 8.09708 11.2634 8.10385 11.3092 8.10385C11.5094 8.10385 11.6947 7.97461 11.7569 7.77333C11.8068 7.61213 11.8502 7.44668 11.8862 7.28161C11.9412 7.02868 11.7808 6.77897 11.5278 6.72389Z" fill="#FE9A00"/>
<path d="M8.48764 10.4234C8.36319 10.4929 8.23433 10.5578 8.10467 10.6164C7.86873 10.7229 7.76385 11.0006 7.87039 11.2365C7.94867 11.4099 8.11928 11.5125 8.29787 11.5125C8.36237 11.5125 8.42792 11.4991 8.49053 11.4708C8.64435 11.4013 8.79711 11.3244 8.94467 11.242C9.17073 11.1158 9.25166 10.8302 9.12542 10.6042C8.99926 10.3782 8.7137 10.2973 8.48764 10.4234Z" fill="#FE9A00"/>
<path d="M5.53122 2.25V5.80584L3.81233 7.5247C3.62929 7.70777 3.62929 8.00456 3.81233 8.18761C3.90388 8.27916 4.02381 8.32491 4.14381 8.32491C4.26376 8.32491 4.38374 8.27913 4.47529 8.18761L6.33144 6.33145C6.41933 6.24356 6.46872 6.12431 6.46872 6V2.25C6.46872 1.99111 6.25886 1.78125 5.99997 1.78125C5.74108 1.78125 5.53122 1.99111 5.53122 2.25Z" fill="#FE9A00"/>
<path d="M11.5312 1.00781C11.2724 1.00781 11.0625 1.21767 11.0625 1.47656V2.77819C9.97144 1.06706 8.06604 0 6 0C4.39734 0 2.89062 0.624117 1.75734 1.75734C0.624117 2.89062 0 4.39734 0 6C0 7.60266 0.624117 9.10938 1.75734 10.2427C2.89062 11.3759 4.39734 12 6 12C6.00396 12 6.00778 11.9995 6.01172 11.9994C6.01566 11.9995 6.01948 12 6.02344 12C6.19238 12 6.36298 11.9929 6.53055 11.9789C6.78853 11.9572 6.98016 11.7306 6.95857 11.4726C6.93694 11.2147 6.7106 11.0229 6.45232 11.0446C6.31066 11.0565 6.16638 11.0625 6.02344 11.0625C6.01948 11.0625 6.01566 11.063 6.01172 11.0631C6.00778 11.063 6.00396 11.0625 6 11.0625C3.20852 11.0625 0.9375 8.79148 0.9375 6C0.9375 3.20852 3.20852 0.9375 6 0.9375C7.79902 0.9375 9.45368 1.8964 10.3579 3.42188H9.06898C8.81009 3.42188 8.60023 3.63173 8.60023 3.89062C8.60023 4.14952 8.81009 4.35938 9.06898 4.35938H10.5C10.7855 4.35938 11.0525 4.27915 11.2799 4.14016C11.2946 4.13182 11.3086 4.12284 11.322 4.11316C11.73 3.84478 12 3.38313 12 2.85938V1.47656C12 1.21767 11.7901 1.00781 11.5312 1.00781Z" fill="#FE9A00"/>
</svg>
