<svg width="37" height="37" viewBox="0 0 37 37" fill="none" xmlns="http://www.w3.org/2000/svg">
<rect width="37" height="37" rx="5" fill="#F3E8FF"/>
<path d="M29.819 10.6695C29.8059 10.6572 27.2217 8.19276 27.2217 8.19276C27.1229 8.09797 27.0208 8 26.83 8H16.4264C16.1225 8 15.8752 8.2472 15.8752 8.55108V10.2433L12.2085 10.8719C11.9146 10.9234 11.7169 11.2047 11.7679 11.4983L11.954 12.5834C10.7621 12.9844 9.53851 13.3979 8.35725 13.8222C8.07813 13.9242 7.93165 14.2346 8.03125 14.5154L10.381 21.0474C10.4283 21.1788 10.5521 21.2606 10.6843 21.2606C10.7205 21.2606 10.7573 21.2545 10.7933 21.2415C10.9608 21.1813 11.0477 20.9967 10.9875 20.8292L8.67251 14.3938C9.78541 13.9954 10.9379 13.6054 12.0643 13.2263L13.1716 19.6821L14.4458 27.1171C14.4918 27.3796 14.7225 27.5663 14.9829 27.5663C15.0124 27.5663 15.0423 27.5639 15.0723 27.559L18.5234 26.9667L21.2201 26.5045L17.1642 27.9623L13.9658 29.1123L11.4819 22.2033C11.4217 22.0358 11.2372 21.9489 11.0696 22.0091C10.9021 22.0693 10.8152 22.2539 10.8754 22.4214L13.3946 29.4285C13.4751 29.6488 13.6839 29.7858 13.9045 29.7858C13.9655 29.7858 14.0274 29.7753 14.0877 29.7533L17.3822 28.5688L24.8628 25.8801L26.2919 25.6351H29.4489C29.7528 25.6351 30 25.3874 30 25.0828V11.0327C30 10.8398 29.8954 10.7414 29.819 10.6695ZM28.9651 10.7458H27.3525L27.3126 10.746C27.2353 10.7465 27.0546 10.7479 27.0087 10.7023C26.9982 10.6918 26.9858 10.6566 26.9858 10.5914L26.982 8.85478L28.9651 10.7458ZM29.3555 24.9905H16.5198V18.7099C16.5198 18.5319 16.3755 18.3876 16.1975 18.3876C16.0195 18.3876 15.8752 18.5319 15.8752 18.7099V25.0827C15.8752 25.3872 16.1225 25.635 16.4264 25.635H22.4769L18.4144 26.3314L15.0636 26.9065L13.8069 19.5732L12.4203 11.4895L15.8752 10.8972V17.2146C15.8752 17.3926 16.0195 17.5368 16.1975 17.5368C16.3754 17.5368 16.5197 17.3926 16.5197 17.2146V8.64449H26.337L26.3412 10.5921C26.3412 10.8282 26.413 11.0191 26.5546 11.1597C26.7722 11.3757 27.0797 11.3908 27.2706 11.3908C27.287 11.3908 27.3026 11.3906 27.3172 11.3905L29.3555 11.3904V24.9905Z" fill="#34006D"/>
<path d="M18.0732 13.004C18.0732 13.182 18.2175 13.3263 18.3955 13.3263H27.6095C27.7875 13.3263 27.9318 13.182 27.9318 13.004C27.9318 12.8261 27.7875 12.6818 27.6095 12.6818H18.3955C18.2175 12.6818 18.0732 12.8261 18.0732 13.004Z" fill="#34006D"/>
<path d="M27.6095 14.9712H18.3955C18.2175 14.9712 18.0732 15.1155 18.0732 15.2935C18.0732 15.4714 18.2175 15.6157 18.3955 15.6157H27.6095C27.7875 15.6157 27.9318 15.4714 27.9318 15.2935C27.9318 15.1155 27.7875 14.9712 27.6095 14.9712Z" fill="#34006D"/>
<path d="M27.6095 17.2606H18.3955C18.2175 17.2606 18.0732 17.4049 18.0732 17.5829C18.0732 17.7609 18.2175 17.9052 18.3955 17.9052H27.6095C27.7875 17.9052 27.9318 17.7609 27.9318 17.5829C27.9318 17.4049 27.7875 17.2606 27.6095 17.2606Z" fill="#34006D"/>
<path d="M27.6095 19.5502H18.3955C18.2175 19.5502 18.0732 19.6945 18.0732 19.8724C18.0732 20.0504 18.2175 20.1947 18.3955 20.1947H27.6095C27.7875 20.1947 27.9318 20.0504 27.9318 19.8724C27.9318 19.6945 27.7875 19.5502 27.6095 19.5502Z" fill="#34006D"/>
<path d="M27.6095 21.8396H18.3955C18.2175 21.8396 18.0732 21.9839 18.0732 22.1619C18.0732 22.3398 18.2175 22.4841 18.3955 22.4841H27.6095C27.7875 22.4841 27.9318 22.3398 27.9318 22.1619C27.9318 21.9839 27.7875 21.8396 27.6095 21.8396Z" fill="#34006D"/>
</svg>
