<svg width="37" height="37" viewBox="0 0 37 37" fill="none" xmlns="http://www.w3.org/2000/svg">
<rect width="37" height="37" rx="5" fill="#DBEAFE"/>
<path d="M15.4773 13.5877H28.4147L21.3475 19.1279C21.1977 19.2452 21.0196 19.3025 20.858 19.3182C20.6952 19.3022 20.5165 19.245 20.3651 19.1279L15.3146 15.1673C15.2611 15.1244 15.2007 15.0916 15.1342 15.0712C15.372 14.7364 15.5076 14.3314 15.5005 13.895C15.4991 13.7951 15.4903 13.6921 15.4773 13.5877ZM12.1873 10.0247C12.2035 10.0274 12.2303 10.0376 12.2885 10.0646C12.4035 10.1191 12.5863 10.2595 12.7653 10.4553C13.1258 10.8474 13.486 11.4412 13.673 11.8333C13.6788 11.8449 13.6849 11.8575 13.6904 11.8705C14.221 12.7794 14.4499 13.4746 14.4568 13.9107C14.4643 14.3487 14.3465 14.5373 13.9745 14.7507L13.0147 15.303C12.3894 15.6624 12.094 16.3063 12.0207 16.9071C11.947 17.5082 12.0554 18.0921 12.3232 18.5539L14.6924 22.6302C14.9607 23.0916 15.4188 23.4776 15.979 23.7147C16.5397 23.9523 17.2488 24.0195 17.874 23.661L18.8338 23.1098C19.2056 22.897 19.4304 22.8926 19.808 23.1167C20.1866 23.3413 20.6784 23.884 21.2068 24.7934C21.2143 24.8069 21.2215 24.8182 21.23 24.8312C21.4777 25.1877 21.815 25.7926 21.9777 26.2992C22.0585 26.5509 22.0902 26.7783 22.08 26.9041C22.0687 27.0305 22.066 27.0176 22.0326 27.0374L21.3023 27.4553C19.4676 28.2497 17.7861 28.0704 16.2832 27.2923C14.7776 26.511 13.4689 25.0999 12.5566 23.4432C12.5535 23.4399 12.5521 23.4358 12.5497 23.4336L10.5512 19.9952C10.5479 19.9919 10.5465 19.9889 10.5437 19.9845C9.55499 18.3711 8.97884 16.5393 9.0511 14.854C9.12336 13.1712 9.80735 11.637 11.4186 10.4567L12.1492 10.0401C12.166 10.0304 12.1715 10.023 12.1873 10.0247ZM12.1947 9.00016C12.0014 8.99713 11.8042 9.0376 11.6268 9.1403L10.8543 9.58386C10.8369 9.59377 10.8209 9.60396 10.8052 9.61387C8.94657 10.9718 8.09075 12.8622 8.00718 14.8108C7.92362 16.7584 8.57506 18.7686 9.65125 20.5261L11.6431 23.9526L11.6384 23.9424C12.6327 25.7461 14.0575 27.3108 15.7986 28.2122C17.5406 29.115 19.6157 29.3243 21.7295 28.4041C21.7469 28.3967 21.7645 28.3884 21.7802 28.3788L22.5539 27.9352C22.9116 27.7321 23.0914 27.3367 23.1206 26.9914C23.1507 26.6472 23.0804 26.3122 22.9736 25.982C22.7646 25.3292 22.4 24.6951 22.0988 24.2601C21.5298 23.283 20.9804 22.6048 20.3455 22.2257C19.7056 21.8449 18.9375 21.8504 18.3109 22.21L17.3511 22.7623C17.0676 22.9253 16.7361 22.9063 16.3872 22.759C16.0399 22.6117 15.7184 22.3171 15.5989 22.1106L13.2298 18.0346C13.1101 17.827 13.0122 17.4035 13.0585 17.0302C13.1032 16.6579 13.2546 16.3664 13.5384 16.2031L14.4709 15.6679C14.4952 15.7926 14.5658 15.9057 14.6681 15.9817L19.7189 19.9432C20.0474 20.2009 20.4365 20.3444 20.8284 20.3669C20.8483 20.368 20.8687 20.368 20.8888 20.3669C21.281 20.3444 21.6683 20.2006 21.997 19.9432L28.9533 14.4878V23.5005C28.9533 23.6376 28.7967 23.8182 28.4894 23.8182H23.6736C23.3838 23.8166 23.149 24.05 23.149 24.3378C23.149 24.6249 23.384 24.8584 23.6736 24.8568H28.4894C29.2766 24.8568 30 24.2888 30 23.5005V13.9055C30 13.1166 29.2766 12.5489 28.4894 12.5489H15.1908C15.0435 12.1813 14.849 11.7917 14.6041 11.3683C14.3749 10.892 14.0031 10.2623 13.5379 9.75594C13.3029 9.49933 13.0494 9.27191 12.7325 9.12488V9.12626C12.575 9.05192 12.3878 9.00429 12.1947 9.00016Z" fill="#0E4792"/>
</svg>
