<svg width="12" height="12" viewBox="0 0 12 12" fill="none" xmlns="http://www.w3.org/2000/svg">
<mask id="mask0_22_296" style="mask-type:luminance" maskUnits="userSpaceOnUse" x="0" y="0" width="12" height="12">
<path d="M0 0H12V12H0V0Z" fill="white"/>
</mask>
<g mask="url(#mask0_22_296)">
<path fill-rule="evenodd" clip-rule="evenodd" d="M3.62091 2.91742L3.64683 2.92011C3.75584 2.93144 3.86448 2.94274 3.97254 2.94164C4.4585 2.93667 4.9237 2.74397 5.27085 2.40386C5.348 2.32823 5.41686 2.24343 5.48596 2.15833L5.50236 2.1381C5.59665 2.02208 5.65576 1.94952 5.70226 1.89609C5.74166 1.85082 5.75676 1.83728 5.75801 1.83614C5.89881 1.72128 6.10096 1.72128 6.24176 1.83614C6.243 1.83725 6.25806 1.85078 6.29751 1.89609C6.34401 1.94952 6.40311 2.02208 6.49741 2.1381L6.51385 2.15833C6.5829 2.24343 6.65176 2.32824 6.72891 2.40386C7.07606 2.74397 7.54126 2.93667 8.02721 2.94164C8.13526 2.94274 8.24391 2.93145 8.35291 2.92011L8.37885 2.91742C8.52755 2.90206 8.62066 2.89255 8.69131 2.88764C8.7512 2.88349 8.77146 2.88458 8.77316 2.88468C8.95391 2.90301 9.09686 3.04596 9.1152 3.22672C9.1153 3.22836 9.11641 3.24857 9.11226 3.30855C9.10731 3.37921 9.09781 3.47231 9.08246 3.62102L9.07975 3.64691C9.06845 3.75593 9.05716 3.86459 9.05826 3.97265C9.0632 4.45861 9.25591 4.92382 9.59601 5.27095C9.67166 5.34815 9.75646 5.41695 9.84151 5.48605L9.86176 5.5025C9.97781 5.5968 10.0504 5.6559 10.1038 5.70235C10.1489 5.74165 10.1625 5.75675 10.1637 5.7581C10.2786 5.8989 10.2786 6.1011 10.1637 6.2419C10.1625 6.24325 10.1489 6.25835 10.1038 6.29765C10.0504 6.3441 9.97781 6.4032 9.86176 6.4975L9.84156 6.51395C9.75651 6.58305 9.67166 6.65185 9.59601 6.72905C9.25591 7.07615 9.0632 7.5414 9.05826 8.02735C9.05716 8.1354 9.06845 8.24405 9.07975 8.35305L9.08246 8.379C9.09781 8.5277 9.10731 8.6208 9.11226 8.69145C9.11641 8.7515 9.1153 8.7717 9.1152 8.7733C9.09686 8.95405 8.95391 9.097 8.77316 9.1153C8.77156 9.1154 8.75141 9.1165 8.69131 9.11235C8.62066 9.10745 8.52755 9.09795 8.37885 9.0826L8.35291 9.0799C8.24391 9.06855 8.13526 9.05725 8.02721 9.05835C7.54126 9.06335 7.07606 9.256 6.72891 9.59615C6.65176 9.67175 6.5829 9.75655 6.51385 9.84165L6.49741 9.8619C6.40311 9.9779 6.34401 10.0505 6.29751 10.1039C6.25826 10.149 6.2431 10.1626 6.24176 10.1638C6.10096 10.2787 5.89881 10.2787 5.75801 10.1638C5.75666 10.1626 5.74151 10.149 5.70226 10.1039C5.65576 10.0505 5.59665 9.9779 5.50236 9.8619L5.48596 9.8417C5.41686 9.7566 5.34805 9.67175 5.27085 9.59615C4.9237 9.256 4.45849 9.06335 3.97254 9.05835C3.86448 9.05725 3.75584 9.06855 3.64683 9.0799L3.62091 9.0826C3.47219 9.09795 3.37909 9.10745 3.30844 9.11235C3.24843 9.1165 3.22823 9.1154 3.2266 9.1153C3.04584 9.097 2.9029 8.95405 2.88456 8.77325C2.88446 8.77155 2.88337 8.7513 2.88753 8.69145C2.89243 8.6208 2.90195 8.5277 2.9173 8.379L2.91999 8.35305C2.93133 8.24405 2.94262 8.1354 2.94152 8.02735C2.93655 7.5414 2.74386 7.07615 2.40374 6.72905C2.32812 6.65185 2.24332 6.58305 2.15823 6.51395L2.13798 6.4975C2.02197 6.4032 1.9494 6.3441 1.89598 6.29765C1.85067 6.2582 1.83714 6.2431 1.83602 6.24185C1.72117 6.1011 1.72117 5.8989 1.83602 5.75815C1.83714 5.7569 1.85067 5.7418 1.89598 5.70235C1.9494 5.6559 2.02197 5.5968 2.13798 5.5025L2.15821 5.48605C2.24331 5.417 2.32812 5.34815 2.40374 5.27095C2.74386 4.92382 2.93655 4.45861 2.94152 3.97265C2.94262 3.86459 2.93133 3.75596 2.91999 3.64694L2.9173 3.62102C2.90195 3.47231 2.89243 3.37921 2.88753 3.30855C2.88337 3.24868 2.88446 3.22844 2.88456 3.22673C2.9029 3.04596 3.04585 2.90301 3.22662 2.88468C3.22832 2.88458 3.24857 2.88349 3.30844 2.88764C3.37909 2.89255 3.47219 2.90206 3.62091 2.91742ZM1.83602 6.24185C1.836 6.24185 1.83603 6.24185 1.83602 6.24185V6.24185ZM3.2266 9.1153C3.22654 9.1153 3.22661 9.1153 3.2266 9.1153V9.1153ZM6.24176 10.1638C6.24165 10.1639 6.24186 10.1637 6.24176 10.1638V10.1638ZM8.77316 2.88468C8.77316 2.88468 8.77321 2.88468 8.77316 2.88468V2.88468ZM4.92036 1.66505C5.10255 1.44091 5.19366 1.32883 5.2828 1.25589C5.70001 0.914704 6.29976 0.914704 6.71696 1.25589C6.80611 1.32883 6.89721 1.4409 7.07941 1.66504C7.16516 1.77051 7.208 1.82326 7.25381 1.86814C7.46266 2.07276 7.74251 2.18869 8.03491 2.19168C8.09901 2.19233 8.16661 2.18535 8.30181 2.17139C8.58916 2.14172 8.73281 2.12688 8.84746 2.13837C9.38365 2.19209 9.80781 2.61621 9.86151 3.15244C9.87301 3.26708 9.85816 3.41074 9.82851 3.69806C9.81451 3.83326 9.80756 3.90086 9.80821 3.96499C9.81121 4.25735 9.9271 4.53723 10.1318 4.74608C10.1766 4.79188 10.2294 4.83474 10.3348 4.92046C10.559 5.10263 10.6711 5.19375 10.744 5.28295C11.0852 5.7001 11.0852 6.2999 10.744 6.71705C10.6711 6.80625 10.559 6.89735 10.3348 7.0795C10.2294 7.1652 10.1766 7.2081 10.1318 7.2539C9.9271 7.46275 9.81121 7.74265 9.80821 8.035C9.80756 8.09915 9.81451 8.16675 9.82851 8.30195C9.85816 8.58925 9.87301 8.7329 9.86151 8.84755C9.80781 9.3838 9.38365 9.8079 8.84746 9.86165C8.73281 9.8731 8.58916 9.8583 8.30181 9.8286C8.16661 9.81465 8.09901 9.80765 8.03491 9.8083C7.74251 9.8113 7.46266 9.92725 7.25381 10.1318C7.208 10.1767 7.16516 10.2294 7.07941 10.3349C6.89721 10.559 6.80611 10.6711 6.71696 10.7441C6.29976 11.0853 5.70001 11.0853 5.2828 10.7441C5.19366 10.6711 5.10256 10.5591 4.92036 10.3349C4.83468 10.2295 4.79175 10.1767 4.74596 10.1318C4.53712 9.92725 4.25723 9.8113 3.96487 9.8083C3.90075 9.80765 3.83315 9.81465 3.69794 9.8286C3.41063 9.8583 3.26697 9.8731 3.15233 9.86165C2.61609 9.8079 2.19197 9.3838 2.13825 8.84755C2.12677 8.7329 2.1416 8.58925 2.17127 8.30195C2.18523 8.16675 2.19221 8.09915 2.19156 8.035C2.18857 7.74265 2.07264 7.46275 1.86802 7.2539C1.82315 7.2081 1.77041 7.16525 1.66494 7.07955C1.4408 6.8974 1.32871 6.80625 1.25577 6.71705C0.91458 6.2999 0.91458 5.7001 1.25577 5.28295C1.32871 5.19375 1.44078 5.10265 1.66492 4.92048C1.7704 4.83475 1.82314 4.79188 1.86802 4.74608C2.07264 4.53723 2.18857 4.25735 2.19156 3.96499C2.19221 3.90087 2.18523 3.83326 2.17127 3.69807C2.1416 3.41075 2.12677 3.26708 2.13825 3.15244C2.19197 2.61621 2.61609 2.19209 3.15233 2.13837C3.26697 2.12688 3.41062 2.14172 3.69793 2.17139C3.83313 2.18535 3.90075 2.19233 3.96487 2.19168C4.25724 2.18869 4.53712 2.07276 4.74596 1.86814C4.79176 1.82326 4.83463 1.77052 4.92036 1.66505ZM7.76511 5.26515C7.91156 5.1187 7.91156 4.88128 7.76511 4.73483C7.61866 4.58839 7.38126 4.58839 7.23481 4.73483L5.49996 6.46965L4.76512 5.73485C4.61868 5.5884 4.38124 5.5884 4.23479 5.73485C4.08835 5.8813 4.08835 6.1187 4.23479 6.26515L5.23481 7.26515C5.38126 7.4116 5.61866 7.4116 5.76511 7.26515L7.76511 5.26515Z" fill="#1D6630"/>
</g>
</svg>
