<svg width="12" height="12" viewBox="0 0 12 12" fill="none" xmlns="http://www.w3.org/2000/svg">
<path fill-rule="evenodd" clip-rule="evenodd" d="M3.57922 4.95061C3.78003 4.74977 4.10568 4.74977 4.30653 4.95061L6 6.64408L11.122 1.52203C11.3229 1.32119 11.6485 1.32119 11.8494 1.52203C12.0502 1.72287 12.0502 2.04849 11.8494 2.24934L6.36367 7.73506C6.16283 7.9359 5.83721 7.9359 5.63636 7.73506L3.57922 5.67792C3.37838 5.47707 3.37838 5.15145 3.57922 4.95061Z" fill="#00C951"/>
<path fill-rule="evenodd" clip-rule="evenodd" d="M5.99999 1.02857C3.25435 1.02857 1.02857 3.25436 1.02857 6.00001C1.02857 8.74565 3.25435 10.9714 5.99999 10.9714C8.74564 10.9714 10.9714 8.74565 10.9714 6.00001C10.9714 5.71596 11.2017 5.48572 11.4857 5.48572C11.7697 5.48572 12 5.71596 12 6.00001C12 9.31372 9.3137 12 5.99999 12C2.68628 12 0 9.31372 0 6.00001C0 2.6863 2.68628 0 5.99999 0C6.70953 0 7.39135 0.123379 8.02448 0.350284C8.29188 0.446107 8.43094 0.740538 8.33513 1.00793C8.23932 1.2753 7.94486 1.41436 7.6775 1.31855C7.1541 1.13097 6.58959 1.02857 5.99999 1.02857Z" fill="#00C951"/>
</svg>
